<svg xmlns="http://www.w3.org/2000/svg" width="586" height="550" fill="none" xmlns:v="https://vecta.io/nano"><style><![CDATA[.B{fill:#ba68c8}.C{fill:#000}.D{fill:#37474f}.E{fill:#455a64}.F{fill:#263238}.G{opacity:.2}.H{fill:#fff}.I{opacity:.15}.J{opacity:.3}.K{opacity:.5}.L{opacity:.1}.M{fill:#fafafa}.N{fill:#ebebeb}.O{fill:#e0e0e0}.P{opacity:.4}.Q{fill:#f0f0f0}.R{fill:#f5f5f5}.S{fill:#ffbda7}]]></style><g clip-path="url(#A)"><path d="M85.821 260.862c-114.415 66.142-114.415 173.382 0 239.537 114.427 66.143 299.943 66.143 414.358 0 114.428-66.143 114.428-173.395 0-239.537s-299.943-66.143-414.371 0h.013z" class="R"/><g fill="#e6e6e6"><path d="M484.817 488.134c24.493 0 44.347-11.479 44.347-25.639s-19.854-25.64-44.347-25.64-44.347 11.48-44.347 25.64 19.855 25.639 44.347 25.639zm-218.496 43.469L5.23 380.681 266.321 229.96 527.4 380.681 266.321 531.603z"/></g><g class="N"><path d="M81.889 4.58l-8.38 4.845.076-1.11V5.88c0-4.328-3.037-6.082-6.767-3.912-1.512.871-2.911 2.259-4.033 3.886-.618-5.438-4.877-7.47-10.044-4.467-5.595 3.23-10.132 11.104-10.132 17.577v3.634c0 1.678.315 3.091.857 4.214l-6.956 4.025c-2.079 1.199-3.756 4.113-3.756 6.511s1.676 3.369 3.756 2.17l45.406-26.245c2.079-1.199 3.755-4.113 3.755-6.511s-1.676-3.369-3.755-2.17l-.025-.013zm37.176 19.079l-6.326 3.659.05-.833v-1.83c0-3.268-2.293-4.593-5.116-2.953-1.147.656-2.193 1.703-3.05 2.927-.466-4.101-3.68-5.627-7.586-3.369-4.222 2.448-7.65 8.378-7.65 13.261v2.738c0 1.262.239 2.334.643 3.18l-5.255 3.041c-1.563.909-2.835 3.104-2.835 4.921s1.273 2.549 2.835 1.64l34.265-19.81c1.563-.909 2.835-3.104 2.835-4.921s-1.272-2.549-2.835-1.64l.025-.013z"/></g><path d="M33.522 370.713c7.183 1.148 13.61-.846 14.719-8.618.907-6.385.907-12.896 0-19.28-.328-2.309-1.147-5.035-3.403-5.641-1.852-.492-3.793.871-4.625 2.6s-.819 3.735-.781 5.653c-1.134-2.524-2.823-5.439-5.583-5.489-2.558-.063-4.486 2.624-4.574 5.186s1.134 4.946 2.331 7.217c-1.928-.265-4.121-.404-5.595.871-1.764 1.527-1.563 4.479-.202 6.384s3.541 3.003 5.633 4.038c-1.273-.706-3.024.265-3.415 1.678-.391 1.401.328 2.953 1.462 3.861 1.134.921 2.596 1.325 4.033 1.552v-.012z" class="F"/><use href="#B" class="B"/><g class="C"><use href="#B" class="I"/><path d="M39.949 300.469c2.647-.088 5.054-1.501 7.171-3.104s4.083-3.432 6.465-4.58c1.349-.656 2.672-.846 3.97-.719 3.39.328 6.541 2.851 9.036 5.034 2.167 1.893 7.297 3.129 7.448-1.274.063-1.716-.643-2.234 1.424-2.852 1.474-.442 3.718.177 5.192.429 5.381.896 7.221-.656 7.208-6.12 0-2.712-.29-2.99 1.979-3.974 2.835-1.224 4.915-2.032 4.713-5.703-.265-4.783-5.116-5.552-8.443-7.647-3.138-1.981-4.335-7.255-.315-8.895 2.458-.997 7.637-.089 7.372-4.253-.139-2.183-2.42-3.142-3.919-4.378-2.331-1.931-4.222-5.022-7.095-6.271-3.239-1.401-4.348-.114-3.629-3.849.794-4.1-.781-3.394-3.592-5.488-1.487-1.111-1.109-1.615-1.298-3.281-.391-3.47-1.966-4.631 1.008-7.306 2.621-2.347 4.373-5.11 1.424-8.164-1.676-1.741-3.579-1.615-5.873-1.602-3.151 0-4.184.025-5.759-2.94-1.21-2.284.252-3.167.983-5.211.655-1.83.844-4.139.907-6.044.151-4.858-3.957-1.931-6.641-4.101-1.764-1.426-.781-3.81-1.084-5.678a3.58 3.58 0 0 0-.139-.555c-.731 1.464-1.348 2.965-1.525 4.58-.252 2.221.529 4.707 2.457 5.855.605.353 1.298.58 1.815 1.047 1.096 1.01.995 2.814.391 4.177s-1.613 2.523-2.155 3.924c-1.071 2.763.088 6.195 2.596 7.76 2.546 1.577 6.641 1.918 7.07 4.896.63 4.239-7.574 5.955-6.641 10.132.403 1.791 2.344 2.687 3.68 3.936 2.13 1.981 2.835 5.199 2.243 8.051s-2.319 5.362-4.398 7.394c-1.525 1.489-3.428 3.533-2.407 5.413 1.008 1.855 3.919 1.489 5.457 2.94 1.311 1.236 1.172 3.369.567 5.072-.605 1.691-1.575 3.319-1.638 5.11-.076 2.158 1.159 4.114 2.306 5.931 1.159 1.817 2.331 3.836 2.105 5.981-.555 5.286-6.692 3.734-9.439 1.741-3.743-2.713-9.578-1.868-12.388 1.804-1.059 1.376-1.701 3.028-2.747 4.416-1.046 1.376-2.735 2.511-4.436 2.133-1.588-.353-2.394-1.792-2.735-3.268-.365-1.59.063-3.546-1.802-4.278-1.916-.757-3.97.026-5.709.896-.857.429-1.613.984-2.533 1.237a13.59 13.59 0 0 1-3.113.467c-.643.025-1.285 0-1.89-.227-.605-.215-1.147-.644-1.399-1.224-.302-.732-.101-1.565-.189-2.347-.202-1.943-1.701-2.335-3.214-3.029-1.777-.807-3.743-1.211-5.684-1.11-1.424.076-2.886.391-4.348.681 1.361.316 2.861.265 4.36.291h.302a3.72 3.72 0 0 1 .366.012c.227 0 .454.025.681.038.063 0 .113 0 .176.013a9.48 9.48 0 0 1 .832.113l.214.038c.277.063.567.126.844.215s.555.202.807.353.479.328.668.555c.529.656.555 1.476.315 2.284-.252.807-.769 1.602-1.348 2.221-1.159 1.224-2.634 2.473-2.634 4.164 0 .807.315 1.476.819 2.018.101.114.214.215.328.316a5.66 5.66 0 0 0 1.21.77c1.046.517 2.293.82 3.415.984 1.538.227 3.138.429 4.701.378a11.9 11.9 0 0 0 1.159-.088c1.147-.139 2.243-.467 3.239-1.06.366-.214.706-.467 1.059-.694s.718-.429 1.122-.568a2.68 2.68 0 0 1 .63-.126c.428-.025.869.051 1.21.278a1.53 1.53 0 0 1 .428.429c.063.101.101.202.139.303.076.214.113.441.139.668.013.114.038.227.05.341.479 2.599 3.327 4.252 5.973 4.164l-.013.025z" class="I"/></g><path d="M65.934 247.083l-14.681 29.135v-13.413l-1.487-57.121-2.168 57.121v9.022l-16.131-28.239 16.131 34.661v89.827c0 .265.176.543.542.744.718.417 1.878.417 2.596 0 .353-.201.542-.479.542-.744V283.65l14.681-36.579-.025.012z" class="D"/><use href="#C" class="B"/><use href="#C" opacity=".25" class="C"/><use href="#D" class="B"/><g class="J H"><use href="#D"/></g><use href="#E" class="B"/><use href="#E" class="C I"/><g class="B"><path d="M266.321 521.597l248.326-143.541v-11.911L266.321 509.686v11.911z"/><use href="#F"/></g><g opacity=".7" class="H"><use href="#F"/></g><use href="#G" class="B"/><g opacity=".7" class="H"><use href="#G"/></g><g class="L C"><use href="#G"/></g><use href="#H" class="B"/><g opacity=".7" class="H"><use href="#H"/></g><path d="M266.372 479.15l.025-7.722L453.463 363.28V170.164l6.679 3.861-.806 193.583L266.372 479.15z" class="E"/><path d="M266.409 479.15l-.012-7.722L79.331 363.281V170.164l-6.679-3.861.806 201.306L266.409 479.15z" class="D"/><path d="M453.463 363.281v-10.726L266.372 244.408v10.725l187.091 108.148z" class="M"/><path d="M79.293 363.281v-10.726l187.091-108.147-.012 10.725L79.293 363.281z" class="N"/><path d="M110.974 251.966l2.382 1.375 68.329-39.506-2.382-1.376-68.329 39.507z" class="E"/><use href="#I" class="B"/><g opacity=".85" class="H"><use href="#I"/></g><path d="M147.722 172.146v59.947l2.395-1.375v-59.96l-2.395 1.388z" class="D"/><path d="M146.538 171.452l1.184.694v59.947l-1.184-.694v-59.947z" class="F"/><path d="M147.722 172.145l2.395-1.388-1.197-.694-2.382 1.388 1.184.694z" class="M"/><path d="M184.067 149.749l-73.105 42.257v65.474l73.105-42.257v-65.474zm-2.382 64.099l-68.329 39.506v-59.96l68.329-39.506v59.96z" class="D"/><path d="M181.685 213.835l-2.382-1.375v-57.197l2.382-1.375v59.947z" class="F"/><path d="M184.067 149.749l-2.382-1.375-73.105 42.257 2.394 1.375 73.093-42.257z" class="E"/><g class="F"><path d="M108.58 190.631l2.394 1.375v65.474l-2.394-1.375v-65.474zm39.142-17.123l2.382-1.362v1.375l-2.382 1.375v-1.388z"/></g><g class="C"><path d="M147.722 174.896l-1.184-.694 1.184-.694v1.388z"/><path d="M238.836 275.032c-6.377 3.684-6.377 9.653 0 13.337s16.698 3.684 23.075 0 6.376-9.653 0-13.337-16.698-3.685-23.075 0z" class="I"/></g><use href="#J" class="D"/><path d="M262.579 280.785c0-1.804-1.185-3.608-3.566-4.984-4.764-2.75-12.489-2.75-17.253 0-2.382 1.376-3.566 3.18-3.566 4.984v1.691c.025 1.779 1.222 3.558 3.579 4.921 4.763 2.751 12.489 2.751 17.265 0 2.356-1.363 3.541-3.142 3.579-4.921v-1.691h-.038z" class="F"/><use href="#J" class="D"/><path d="M251.69 200.712h-2.621v79.291c-.038.215.088.442.378.606.517.303 1.348.303 1.852 0 .29-.164.404-.391.378-.606v-79.291h.013z" class="E"/><path d="M267.518 198.201l-4.221-20.251H237.45l-4.222 20.251c-1.147 3.231.428 6.713 4.764 9.211 6.843 3.95 17.932 3.95 24.763 0 4.322-2.498 5.91-5.98 4.763-9.211z" class="R"/><path d="M241.193 184.044c5.078 2.928 13.307 2.928 18.373 0 5.079-2.927 5.079-7.684 0-10.624-5.078-2.927-13.307-2.927-18.373 0-5.079 2.927-5.079 7.684 0 10.624z" class="M"/><path d="M250.379 184.398c-3.024 0-5.86-.669-7.964-1.893-1.853-1.072-2.886-2.41-2.886-3.773s1.021-2.7 2.886-3.772c2.104-1.212 4.927-1.893 7.964-1.893s5.86.669 7.965 1.893c1.853 1.072 2.886 2.41 2.886 3.772s-1.021 2.701-2.886 3.773c-2.105 1.211-4.927 1.893-7.965 1.893z" class="O"/><use href="#K" class="B"/><g class="K H"><use href="#K"/></g><path d="M415.619 255.676l20.882 12.075v-21.905l-20.882-12.062v21.892z" class="H"/><g class="B"><path d="M412.531 257.48l25.999 15.028v-27.835l-25.999-15.028v27.835zm2.017-24.327l21.953 12.693v23.167l-21.953-12.694v-23.166z"/><use href="#L"/></g><use href="#L" class="C I"/><use href="#M" class="B"/><g class="K H"><use href="#M"/></g><use href="#N" class="B"/><use href="#N" class="C I"/><g opacity=".6" class="B"><path d="M416.438 255.02l19.256 11.129v-5.565l-4.814-11.129-2.999 2.776 1.071 4.669-6.641-14.233-5.873 6.788v5.565zm11.619-10.94c.782.455 1.424 1.565 1.424 2.473s-.642 1.275-1.424.821-1.424-1.565-1.424-2.474.643-1.274 1.424-.82z"/></g><use href="#O" class="B"/><g class="K H"><use href="#O"/></g><path d="M281.999 178.429l20.881 12.075V168.6l-20.881-12.063v21.892z" class="H"/><g class="B"><path d="M278.911 180.233l25.998 15.028v-27.835l-25.998-15.028v27.835zm2.016-24.327L302.88 168.6v23.166l-21.953-12.693v-23.167z"/><use href="#P"/></g><use href="#P" class="C I"/><use href="#Q" class="B"/><g class="K H"><use href="#Q"/></g><use href="#R" class="B"/><use href="#R" class="C I"/><g opacity=".6" class="B"><path d="M282.818 177.773l19.256 11.142v-5.577l-4.814-11.129-3 2.788 1.072 4.669-6.642-14.246-5.872 6.789v5.564zm11.619-10.939c.781.454 1.424 1.564 1.424 2.473s-.643 1.274-1.424.82-1.424-1.565-1.424-2.473.642-1.275 1.424-.82z"/></g><path d="M431.586 360.745l-43.289 25.021c-.567.328-1.499.328-2.066 0l-117.805-68.099c-.567-.328-.567-.87 0-1.199l43.288-25.021c.567-.328 1.5-.328 2.067 0l117.805 68.099c.567.328.567.87 0 1.199z" class="C I"/><use href="#S" class="B"/><use href="#S" class="C K"/><use href="#T" class="B"/><g class="C"><use href="#T" opacity=".35"/><path d="M315.596 336.19l25.746-14.889c.277-.164.277-.429 0-.593l-30.51-17.539c-.277-.164-.743-.164-1.021 0l-25.683 14.826c-.277.164-.277.429 0 .593l30.447 17.59c.277.164.743.164 1.021 0v.012z" class="G"/><path d="M316.856 333.554l-.719-.417s.416-.126.605-.038.114.455.114.455z"/><path d="M317.347 333.112s-.579-.644-1.273 0-.73 1.274-1.02 1.262c-.29 0-.278-5.098-.278-5.098l2.735 2.549-.164 1.287z"/></g><path d="M288.665 314.601l-.05-.025.441-.252 18.89-10.915 27.523 17.842c.454.265.542.643.177.845l-.643.366-17.656 10.208-.126-.088-28.569-17.981h.013z" class="E"/><path d="M314.991 326.866l1.361-.278v5.489c-.819.353-1.349.682-1.437 1.375l.063-6.573.013-.013z" class="B"/><path d="M316.969 332.127l17.492-10.106a1.24 1.24 0 0 0 .554-.959v-5.401l-17.655 10.296s-.214.77-.832 1.01c-.63.239-.151.479-.151.479v4.606c.542-.063.605.075.605.075h-.013z" class="N"/><path d="M315.356 326.677c.177-.101.328-.114.328-.013v.177c0 .189.29.176.643-.025s.642-.53.642-.72v-.176c0-.101.24-.316.542-.492L289.056 309.1l-.442.252c-.075.076-.113.19-.113.24v.177c0 .189-.29.517-.643.719s-.642.215-.642.025v-.176c0-.101-.139-.089-.328.012l28.456 16.328h.012z" class="D"/><g class="E"><path d="M288.665 309.378l-.05-.026.441-.252 18.89-10.914 27.523 15.911c.454.265.542.643.177.845l-.643.366-17.656 10.649-28.682-16.579zm-1.449.782l28.443 16.441-.996.782-28.342-16.391c.126-.29.252-.441.378-.529l.529-.303h-.012z"/><path d="M286.422 318.362l-.051-.038c-.012 0-.025-.013-.038-.026-.025-.025-.037-.05-.063-.075-.012-.013-.025-.026-.025-.038l-.075-.164c-.026-.063-.038-.126-.063-.189l-.038-.215c0-.038-.013-.088-.013-.126v-.101-.252-4.707c0-.53.101-1.047.265-1.438l28.342 16.39.113 7.369-28.342-16.39h-.012z"/></g><path d="M314.65 327.383l-24.36-11.419c-1.335-.631-2.003.694-1.676 2.069.278 1.199 1.462 2.436 1.462 2.436l-3.654-2.107s-.038-.026-.051-.038c-.012 0-.025-.013-.038-.026-.025-.025-.037-.05-.063-.075-.012-.013-.025-.026-.025-.038l-.075-.164s-.038-.126-.063-.189l-.038-.215c0-.038-.013-.088-.013-.126v-.101-.252-4.707c0-.53.101-1.047.265-1.438l28.342 16.39h-.013z" class="C L"/><g class="D"><path d="M314.386 328.822h.63c0-.681.202-1.237.302-1.388.139.113.315.177.517.177.303 0 .592-.139.794-.253.252-.151.542-.378.731-.643.013-.026.025-.038.038-.063a.98.98 0 0 0 .189-.543l16.748-9.69.567-.329.731-.416c.151-.088.227-.202.227-.328v-.744c0 .151-.088.252-.227.34l-1.928 1.111-16.206 9.362c-.303.177-.555.391-.555.492v.177c0 .088-.05.189-.151.303a1.64 1.64 0 0 1-.492.416c-.352.202-.642.215-.642.025v-.176c0-.101-.139-.089-.328.012l-.315.19c-.353.201-.643 1.085-.643 1.955l.013.013z"/><path d="M315.028 328.822v4.706.202.164s.013 0 .026.013c.063-.505.542-.959.957-1.199.189-.113.479-.24.769-.24a.81.81 0 0 1 .567.215l.063-.038s.076-.05.114-.063l16.206-9.362.933-.543.264-.151.782-.455c.113-.075.176-.176.176-.302v.744c0 .101-.05.202-.164.29l-.29.164-.176.101-.315.177a1.29 1.29 0 0 0-.189.113c-.051.026-.101.063-.139.076l-.239.139-12.867 7.432-4.108 2.372c-.29.177-.53.227-.542.139v-.025-.164c0-.202-.29-.202-.643 0s-.504.454-.504.643v.202c0 .101-.038.214-.101.24-.025.012-.063.038-.101.05l-.201.114c-.076.038-.164.101-.252.151-.114.063-.227.051-.315-.025-.013 0-.026-.013-.038-.025-.025-.026-.038-.051-.063-.076 0 0-.025-.025-.025-.038l-.076-.164c-.025-.063-.038-.126-.063-.189l-.038-.215c0-.038-.012-.088-.012-.126v-.101-.252-4.707h.63l-.026.013z"/></g><g class="C"><path d="M350.516 355.988l25.747-14.889c.277-.164.277-.429 0-.593l-30.51-17.539c-.278-.164-.744-.164-1.021 0l-25.683 14.826c-.277.164-.277.429 0 .593l30.447 17.59a1.12 1.12 0 0 0 1.02 0v.012z" class="G"/><path d="M351.789 353.351l-.718-.417s.416-.126.605-.037.113.454.113.454z"/><path d="M352.281 352.909s-.58-.643-1.273 0-.731 1.274-1.021 1.262c-.29 0-.277-5.098-.277-5.098l2.735 2.549-.164 1.287z"/></g><path d="M323.586 334.399l-.051-.026.441-.252 18.891-10.914 27.523 17.841c.454.265.542.644.177.846l-.643.366-17.656 10.207-.126-.088-28.569-17.98h.013z" class="E"/><path d="M349.924 346.651l1.361-.278v5.489c-.819.353-1.348.681-1.436 1.375l.063-6.574.012-.012z" class="B"/><path d="M351.903 351.925l17.492-10.107a1.24 1.24 0 0 0 .554-.959v-5.401l-17.656 10.297s-.214.769-.831 1.009c-.63.24-.152.48-.152.48v4.605c.542-.063.605.076.605.076h-.012z" class="N"/><path d="M350.29 346.474c.176-.101.327-.113.327 0v.177c0 .189.29.176.643-.025s.643-.53.643-.72v-.176c0-.101.239-.316.542-.492l-28.456-16.328-.441.252a.41.41 0 0 0-.114.24v.177c0 .189-.289.517-.642.719s-.643.215-.643.025v-.176c0-.101-.139-.089-.328.012l28.456 16.328.013-.013z" class="D"/><g class="E"><path d="M323.586 329.175l-.051-.025.441-.253 18.891-10.914 27.523 15.911c.454.265.542.644.177.845l-.643.366-17.656 10.65-28.682-16.58zm-1.45.782l28.444 16.441-.996.782-28.342-16.39c.126-.29.252-.442.378-.53l.529-.303h-.013z"/><path d="M321.343 338.159s-.038-.025-.051-.038c-.012 0-.025-.013-.038-.025-.025-.025-.038-.051-.063-.076-.012-.013-.025-.025-.025-.038l-.076-.164c-.025-.063-.037-.126-.063-.189l-.037-.215c0-.037-.013-.088-.013-.126v-.101-.252-4.707a3.85 3.85 0 0 1 .265-1.438l28.342 16.391.113 7.368-28.342-16.39h-.012z"/></g><path d="M349.584 347.181l-24.36-11.42c-1.336-.63-2.004.694-1.676 2.07.277 1.198 1.462 2.435 1.462 2.435l-3.655-2.107s-.038-.025-.05-.038c-.013 0-.025-.013-.038-.025-.025-.025-.038-.051-.063-.076-.013-.013-.025-.025-.025-.038l-.076-.164s-.038-.126-.063-.189l-.038-.215c0-.037-.012-.088-.012-.126v-.101-.252-4.707a3.87 3.87 0 0 1 .264-1.438l28.343 16.391h-.013z" class="C L"/><g class="D"><path d="M349.319 348.619h.63c0-.681.202-1.236.303-1.388.138.114.315.177.516.177.303 0 .593-.139.794-.252.252-.152.542-.379.731-.644.013-.025.026-.038.038-.063a.97.97 0 0 0 .189-.543l16.748-9.69.568-.328.73-.417c.152-.088.227-.201.227-.328v-.744c0 .151-.088.252-.227.341l-1.928 1.11-16.206 9.362c-.302.177-.555.392-.555.493v.176c0 .089-.05.189-.151.303a1.62 1.62 0 0 1-.491.416c-.353.202-.643.215-.643.026v-.177c0-.101-.139-.088-.328 0l-.315.189c-.352.202-.642 1.085-.642 1.956l.012.025z"/><path d="M349.949 348.619v4.707.202.164s.013 0 .026.012c.063-.504.541-.959.957-1.198.189-.114.479-.24.769-.24.227 0 .416.076.567.214l.063-.037s.076-.051.114-.064l16.206-9.362.933-.543.264-.151.782-.454c.113-.076.176-.177.176-.303v.744c0 .101-.05.202-.164.291l-.29.164-.176.101-.315.176c-.076.038-.139.076-.189.114-.051.025-.101.063-.139.075l-.239.139-12.867 7.432-4.108 2.372c-.29.177-.53.227-.542.139v-.025-.164c0-.202-.29-.202-.643 0s-.504.454-.504.643v.202c0 .101-.038.215-.101.24-.025.013-.063.038-.101.05l-.201.114c-.076.051-.164.101-.252.151-.114.064-.227.051-.315-.025-.013 0-.026-.012-.038-.025-.025-.025-.038-.051-.063-.076 0 0-.025-.025-.025-.038l-.076-.164c-.025-.063-.038-.126-.063-.189l-.038-.214c0-.038-.013-.089-.013-.127v-.101-.252-4.706h.631l-.026.012z"/></g><path d="M321.242 330.79l26.943 15.571 20.365-11.773c.303-.177.303-.467 0-.631l-26.653-15.406-17.895 10.346-.442.253a.41.41 0 0 0-.113.24v.176c0 .189-.29.518-.643.719-.012.013-.037.026-.063.026l-.592-.341-.277.164s-.025 0-.038.025l-.214.126c-.126.089-.252.24-.378.53v-.025z" class="C L"/><use href="#U" class="B"/><use href="#U" class="C K"/><g class="B"><path d="M345.551 345.54c.454.265 1.197.265 1.651 0l18.5-10.7-27.7-15.759-.642-.379-18.5 10.435c-.454.265-.454.694 0 .959l26.704 15.432-.013.012z"/><use href="#V"/></g><use href="#V" class="C I"/><path d="M365.324 330.096v3.521s.038-.026.063-.038c.202-.114.491-.253.794-.253.202 0 .378.013.517.127v-4.152l-1.374.795z" class="D"/><path d="M364.417 334.828c0-.215.1-.416.226-.606.063-.088.139-.176.227-.265l.076-.075a.67.67 0 0 0 .101-.089c.025-.025.063-.038.088-.063.063-.05.126-.088.189-.126v-3.508l-.907.53v4.189.013z" class="O"/><path d="M367.996 332.948c0 .429-.479 1.034-.656.934l-.655-.417v-2.675l.655-1.123.353-.126.29.164v3.243h.013z" class="C P"/><path d="M346.383 341.049v4.025c.201 0 .403-.038.554-.126l2.029-1.174 15.463-8.933v-4.215l-18.046 10.435v-.012z" class="N"/><path d="M319.313 325.945v3.041a1.24 1.24 0 0 0 .555.959l23.931 13.841 2.029 1.174c.152.088.353.126.555.126v-3.571l-27.057-15.558-.013-.012z" class="R"/><use href="#W" class="B"/><use href="#W" class="C L"/><g class="B"><path d="M347.202 340.569l18.097-10.46c.227-.126.441-.215.529-.177l-.113-.063-27.7-16.012-.328-.189c-.176-.101-.567-.051-.869.126l-17.958 10.384c-.454.265-.454.694 0 .959l26.704 15.432c.453.265 1.197.265 1.651 0h-.013zm-8.506-27.797l.113.063 28.229 16.315s.025-.051.063-.076c.025-.012.063-.038.101-.05l.201-.114.252-.151c.114-.063.227-.051.315.025 0 0 .026.013.038.025.038.038.063.076.088.114l.076.164c.025.063.038.126.063.189l.038.215c0 .038.012.088.012.126v.101.252-.795c0-.441-.365-1.009-.819-1.274l-26.704-15.432c-.453-.265-1.109-.303-1.474-.101l-.34.202h-.013l-.139.088c-.037.026-.075.064-.1.114z"/><use href="#X"/></g><use href="#X" class="C J"/><use href="#Y" class="B"/><use href="#Y" class="C J"/><use href="#Z" class="B"/><use href="#Z" class="C G"/><path d="M318.52 329.617v.745c0 .176.113.34.327.466h.013l24.952 14.423 1.752 1.009c.227.126.529.189.819.189v-.732c-.303 0-.592-.063-.819-.201l-1.109-.644-25.583-14.788c-.239-.139-.34-.303-.34-.492l-.012.025z" class="B"/><path d="M318.52 329.617v.745c0 .176.113.34.327.466h.013l24.952 14.423 1.752 1.009c.227.126.529.189.819.189v-.732c-.303 0-.592-.063-.819-.201l-1.109-.644-25.583-14.788c-.239-.139-.34-.303-.34-.492l-.012.025z" class="C G"/><use href="#a" class="B"/><use href="#a" opacity=".35" class="C"/><use href="#b" class="B"/><g class="C"><use href="#b" class="G"/><path d="M330.353 299.208l-15.614 9.022c-.769.441-2.029.441-2.81 0l-30.057-17.375c-.768-.442-.768-1.174 0-1.615l15.615-9.022c.768-.442 2.028-.442 2.81 0l30.056 17.375c.769.441.769 1.173 0 1.615z" class="G"/></g><path d="M314.55 306.413l13.925-8.051c.693-.403 1.248-1.375 1.248-2.17v.164c0-.795-.555-1.766-1.248-2.17l-28.002-16.189c-.693-.404-1.815-.404-2.508 0l-13.925 8.05c-.693.404-1.248 1.376-1.248 2.171v-.164c0 .795.555 1.766 1.248 2.17l28.002 16.189c.693.403 1.815.403 2.495 0h.013z" class="E"/><g class="F"><path d="M313.302 285.404l15.173 8.769a2.78 2.78 0 0 1 1.248 2.17v-.164c0 .795-.567 1.767-1.26 2.171l-13.926 8.05c-.34.202-.794.303-1.247.303v-21.299h.012z"/><path d="M328.475 295.624l-13.925 8.05c-.693.404-1.815.404-2.508 0l-28.002-16.188c-.693-.404-.693-1.048 0-1.451l13.925-8.051c.693-.403 1.815-.403 2.508 0l28.002 16.189c.693.404.693 1.047 0 1.451z"/></g><use href="#c" class="B"/><use href="#c" opacity=".6" class="H"/><path d="M328.475 292.974v1.325l-14.455 8.353c-.164.101-.34.152-.516.177h-.202v-1.527c.454 0 .907-.101 1.26-.303l13.926-8.05-.013.025z" class="B G"/><path d="M314.55 301.025l13.925-8.051c.693-.403 1.248-1.375 1.248-2.17v-2.574c0-.795-.555-1.766-1.248-2.17l-28.002-16.189c-.693-.404-1.815-.404-2.508 0l-13.925 8.05c-.693.404-1.248 1.376-1.248 2.171v2.574c0 .795.555 1.728 1.248 2.119l28.002 16.24c.693.403 1.815.403 2.508 0z" class="E"/><path d="M313.302 277.291l15.173 8.769c.693.404 1.248 1.375 1.248 2.17v2.574c0 .795-.555 1.767-1.248 2.171l-13.925 8.05c-.341.202-.794.303-1.248.303v-24.037z" class="F"/><path d="M328.475 287.511l-13.925 8.05c-.693.404-1.815.404-2.508 0l-28.002-16.189c-.693-.403-.693-1.047 0-1.451l13.925-8.05c.693-.404 1.815-.404 2.508 0l28.002 16.189c.693.404.693 1.047 0 1.451z" class="D"/><g class="M"><path d="M309.055 281.114c1.538.896 1.538 2.334 0 3.217s-4.045.884-5.583 0-1.537-2.321 0-3.217 4.046-.896 5.583 0zm-22.747.933a1.09 1.09 0 0 1 .492.858c0 .329-.215.455-.492.291a1.09 1.09 0 0 1-.491-.858c0-.316.214-.455.491-.291zm0 1.893c.265.151.492.53.492.858s-.215.454-.492.29c-.265-.151-.491-.53-.491-.858 0-.315.214-.454.491-.29z"/></g><path d="M319.212 312.318c1.21.618 3.895.82 6.024.454l2.722-.467c2.118-.366 4.814-.164 5.999.442 1.197.605 1.979 1.779 1.739 2.599l-.92 3.192c-.239.82-.315 1.691 1.727 2.599 1.55.682 3.037.53 4.121-.164l8.317-5.4c1.084-.707.718-1.905-.807-2.688l-11.72-6.006c-1.524-.782-4.07-.959-5.696-.404l-10.724 3.698c-1.626.555-1.966 1.514-.756 2.132l-.026.013z" class="C G"/><path d="M349.533 311.497c.088-.618-.416-1.312-1.411-1.829l-11.72-6.007c-1.525-.782-4.071-.958-5.696-.403l-10.725 3.697c-.932.328-1.449.782-1.474 1.224l-.202 1.943c0 .315.227.631.718.883 1.21.618 3.895.82 6.024.454l2.722-.467c2.118-.365 4.814-.164 5.999.442.794.404 1.399 1.047 1.651 1.678l-.63 2.183c-.114.404-.189.808 0 1.237l-.202.694c-.239.82-.315 1.69 1.727 2.599 1.55.681 3.037.53 4.121-.164l8.317-5.401c.365-.239.567-.542.617-.858l.202-1.917-.038.012z" class="D"/><path d="M335.936 314.601l.037-5.691-3.541-.933-.328 3.003c.656.101 1.236.265 1.626.466.794.404 1.399 1.048 1.651 1.679l-.252.883.794.58.013.013z" class="F"/><path d="M348.878 310.172c1.071.972 1.147 1.275.857 5.161s-1.172 3.987-2.168 3.318-1.676-2.51-2.898-1.766l4.209-6.725v.012z" class="D"/><use href="#d" class="B"/><use href="#d" class="G H"/><path d="M345.261 309.642c0-.101-.075-.202-.227-.29-.34-.189-.932-.215-1.336-.063-.201.088-.315.202-.315.328 0 .076-.05.378-.05.467 0 .113.076.214.227.315.34.189.945.215 1.336.063.201-.075.302-.189.315-.303 0-.075.05-.403.05-.504v-.013z" class="F"/><path d="M342.426 310.816c0-.101-.076-.215-.227-.303-.34-.189-.933-.214-1.336-.063-.202.076-.302.189-.315.303 0 .075-.05.391-.05.479 0 .114.075.215.226.303.341.189.933.215 1.336.063.202-.076.303-.189.315-.303 0-.075.051-.403.051-.492v.013z" class="D"/><path d="M342.602 309.541c0-.113-.075-.214-.227-.315-.34-.189-.932-.215-1.335-.063-.202.076-.303.189-.316.303 0 .075-.037.391-.05.466 0 .114.063.228.227.316.34.189.932.214 1.336.063.201-.088.315-.202.315-.315 0-.076.05-.392.05-.467v.012z" class="F"/><path d="M345.085 310.93c0-.114-.076-.215-.227-.316-.34-.189-.933-.214-1.336-.063-.202.076-.302.189-.315.303 0 .076-.038.391-.05.467-.013.113.063.227.226.328.341.189.933.214 1.336.063.202-.076.303-.189.315-.303 0-.076.051-.391.051-.479z" class="D"/><g class="E"><path d="M343.698 309.289c-.39.164-.428.442-.088.644.34.189.933.214 1.336.063.391-.164.429-.442.088-.644-.34-.189-.932-.214-1.336-.063zm-2.822 1.161c-.391.164-.429.442-.089.643.341.19.933.215 1.336.064.391-.165.429-.442.088-.644-.34-.189-.932-.214-1.335-.063zm.163-1.274c-.39.164-.428.441-.088.643.341.189.933.215 1.336.063.391-.164.429-.442.088-.643-.34-.19-.932-.215-1.336-.063zm2.483 1.388c-.391.164-.428.441-.088.643s.932.215 1.336.063c.39-.164.428-.441.088-.643-.34-.19-.933-.215-1.336-.063z"/></g><path d="M334.587 304.444l-1.235-.694-1.424.58-1.247-.694-1.412.581-.05.53.718.403-.844.341-.051.53 1.248.694 1.411-.58 1.248.694 1.411-.581.063-.53-.731-.404.845-.34.05-.53z" class="D"/><path d="M333.353 303.75l-1.424.58-1.248-.694-1.412.581 1.248.694-1.424.58 1.248.694 1.424-.58 1.235.694 1.424-.581-1.248-.694 1.412-.58-1.235-.694z" class="E"/><g class="F"><use href="#e"/><path d="M333.176 305.024l.516.29.845-.34.05-.53-1.411.58zm1.247.694l-.063.53-1.411.581.05-.53 1.424-.581zm-3.906-.807l-1.248-.694-.063.555.731.379.58-.24z"/></g><use href="#f" class="B"/><use href="#f" class="C K"/><use href="#g" class="B"/><g class="C"><use href="#g" class="G"/><path d="M360.875 361.515l19.521-11.255c.365-.215.958-.215 1.336 0l15.412 8.794c.366.215.366.555 0 .77l-18.172 10.498c-.366.214-.958.214-1.336 0l-7.977-4.555c-.366-.215-.958-.215-1.336 0-.365.214-.958.214-1.336 0l-6.112-3.483c-.365-.214-.365-.555 0-.769z" class="G"/></g><path d="M379.627 323.131l-15.349 8.984-.076 29.462 15.35-8.983.075-29.463z" class="B"/><path d="M364.769 332.607l14.858-8.643c.756.896 1.891 1.514 3.39 1.867l-14.732 8.606s-.945-.227-3.516-1.83z" class="R"/><use href="#h" class="B"/><use href="#h" opacity=".6" class="H"/><use href="#i" class="B"/><use href="#i" class="H P"/><use href="#j" class="B"/><use href="#j" opacity=".7" class="H"/><use href="#k" class="B"/><use href="#k" opacity=".35" class="C"/><path d="M371.259 341.465l13.762-8.012c.882.719 2.105 1.198 3.655 1.425l-13.649 7.975s-.982-.151-3.78-1.388h.012z" class="H"/><use href="#l" class="B"/><use href="#l" class="C G"/><use href="#m" class="B"/><use href="#m" class="C J"/><use href="#n" class="B"/><use href="#n" class="C L"/><g class="B"><path d="M385.941 379.495l-1.928 1.249 1.512.871c.958.555 2.495.555 3.453 0l15.387-8.896 13.56-7.835c.958-.556 1.727-1.893 1.727-2.991v-52.2c0-.555-.189-1.161-.504-1.703l-33.421 19.217.214 52.288z"/><use href="#o"/></g><use href="#o" class="C G"/><use href="#p" class="B"/><g class="C"><use href="#p" class="L"/><path d="M312.785 250.49l-1.587.921c-.958.555-.958 1.451 0 1.994l30.976 17.905c.957.555.957 1.451 0 1.993l-4.651 2.688c-.957.555-.957 1.451 0 1.993l17.19 9.943c.958.555 2.495.555 3.453 0l4.65-2.687c.958-.556 2.495-.556 3.453 0l31.127 17.993c.958.555 2.495.555 3.453 0l1.588-.921c.958-.556.958-1.451 0-1.994l-86.211-49.841c-.958-.555-2.495-.555-3.453 0l.012.013z" class="G"/></g><use href="#q" class="D"/><use href="#q" class="C I"/><g class="D"><path d="M356.49 283.423v3.154c-.29 0-.567-.063-.794-.189l-16.169-9.35c-.441-.252-.794-.833-.794-1.312 0-.278.126-.593.315-.858h2.647l14.782 8.542.013.013z"/><path d="M348.412 252.622l11.732 6.776c.441.252.857.858.945 1.35l2.647 19.205a1.41 1.41 0 0 1-.63 1.35l-5.822 3.369a1.74 1.74 0 0 1-1.576 0l-16.168-9.35c-.441-.253-.441-.656 0-.909l5.822-3.369c.441-.252.832-.858.882-1.362l1.298-16.618c.051-.505.441-.707.882-.454l-.012.012z"/></g><path d="M348.412 252.622c-.441-.252-.832-.05-.882.455l-.883 11.33 16.232 9.388-1.802-13.034c-.088-.492-.504-1.098-.945-1.35l-11.733-6.776.013-.013z" class="C I"/><g class="E"><path d="M339.54 274.413l5.822-3.369c.214-.126.416-.34.58-.58l17.693 10.22c-.113.253-.302.48-.516.606l-5.823 3.369a1.74 1.74 0 0 1-1.575 0l-16.169-9.35c-.441-.252-.441-.656 0-.908l-.012.012zm61.284 18.246l.164-.101c.605-.353 1.109-1.212 1.109-1.918v-61.462c0-.706-.492-1.564-1.109-1.905l-84.233-48.49c-.605-.354-1.6-.354-2.205 0h.012c-.605.34-1.109 1.198-1.109 1.905v61.461c0 .707.492 1.565 1.109 1.918l84.057 48.592c.605.353 1.6.353 2.205 0z"/></g><path d="M398.241 230.137l3.516-2.044c.201.341.327.732.327 1.085v61.462c0 .707-.491 1.565-1.109 1.918l-.164.101c-.604.353-1.6.353-2.205 0l-.378-.215v-62.307h.013z" class="F"/><path d="M399.728 292.015v-61.462a2.44 2.44 0 0 0-1.109-1.918l-84.057-48.591c-.605-.353-1.109-.063-1.109.644v61.461c0 .707.492 1.565 1.109 1.918l84.057 48.592c.605.353 1.109.063 1.109-.644z" class="D"/><path d="M356.59 265.656l-4.499-2.599c-.34-.189-.604-.05-.604.303s.277.82.604 1.009l4.499 2.6c.341.189.605.05.605-.303 0-.366-.277-.82-.605-1.01z" class="O"/><use href="#r" class="B"/><g opacity=".9" class="H"><use href="#r"/></g><path d="M387.327 305.832l-9.653 5.577c-.529.303-.529.795 0 1.097l9.817 5.678c.517.303 1.374.303 1.89 0l9.653-5.577c.53-.302.53-.795 0-1.097l-9.817-5.678c-.529-.303-1.373-.303-1.89 0z" class="C G"/><g class="D"><path d="M387.214 295.094l8.796 5.085a1.92 1.92 0 0 1 .87 1.501v10.347c0 .555-.391 1.224-.87 1.502l-6.377 3.684c-.479.278-1.247.278-1.726 0l-8.797-5.085c-.478-.278-.869-.946-.869-1.501V300.28c0-.555.391-1.224.869-1.502l6.377-3.684c.479-.278 1.248-.278 1.727 0z"/><path d="M387.92 304.86l-8.797-5.085c-.479-.277-.869-.05-.869.505v10.347a1.92 1.92 0 0 0 .869 1.501l8.797 5.085c.478.278.856.051.856-.505v-10.346c0-.555-.39-1.224-.856-1.502z"/></g><path d="M389.646 304.86l6.377-3.684c.478-.278.869-.051.869.504v10.347a1.92 1.92 0 0 1-.869 1.501l-6.377 3.685c-.479.277-.87.05-.87-.505v-10.346a1.92 1.92 0 0 1 .87-1.502z" class="F"/><path d="M385.487 295.094l-6.377 3.684c-.478.278-.478.72 0 .997l8.797 5.085c.479.278 1.247.278 1.726 0l6.377-3.684c.479-.278.479-.719 0-.997l-8.796-5.085c-.479-.278-1.248-.278-1.727 0z" class="E"/><path d="M383.521 312.772c-2.004-1.161-3.629-3.975-3.629-6.284s1.625-3.255 3.629-2.095 3.63 3.975 3.63 6.284-1.626 3.256-3.63 2.095z" class="F"/><path d="M383.521 312.343c-1.802-1.047-3.264-3.571-3.264-5.653s1.462-2.927 3.264-1.88 3.264 3.571 3.264 5.653-1.462 2.927-3.264 1.88z" class="E"/><use href="#s" class="B"/><use href="#s" class="C G"/><path d="M383.521 309.226c-.315-.177-.567-.618-.567-.984s.252-.505.567-.328a1.24 1.24 0 0 1 .567.984c0 .366-.252.505-.567.328z" class="B"/><g class="F"><path d="M379.199 300.747a.67.67 0 0 1 .302.53c0 .189-.138.277-.302.176-.177-.101-.303-.34-.303-.53s.139-.277.303-.176zm8.468 4.908c.177.101.303.341.303.53 0 .202-.139.278-.303.177a.67.67 0 0 1-.302-.53c0-.19.139-.278.302-.177zm-8.468 4.858a.67.67 0 0 1 .302.53c0 .189-.138.277-.302.177-.177-.101-.303-.341-.303-.53s.139-.278.303-.177zm8.468 4.896c.177.101.303.341.303.53 0 .202-.139.277-.303.177a.67.67 0 0 1-.302-.53c0-.19.139-.278.302-.177z"/></g><path d="M306.837 259.209l-9.653 5.577c-.529.303-.529.795 0 1.098l9.817 5.678c.529.303 1.374.303 1.89 0l9.653-5.577c.53-.303.53-.795 0-1.098l-9.817-5.678c-.529-.303-1.373-.303-1.89 0z" class="C G"/><g class="D"><path d="M306.396 248.37l8.809 5.085c.479.278.87.947.87 1.502v10.346a1.92 1.92 0 0 1-.87 1.502l-6.377 3.684c-.479.278-1.247.278-1.726 0l-8.796-5.085a1.92 1.92 0 0 1-.87-1.501v-10.347a1.92 1.92 0 0 1 .87-1.501l6.376-3.685c.479-.277 1.248-.277 1.727 0h-.013z"/><path d="M307.102 258.137l-8.809-5.085c-.479-.278-.87-.051-.87.504v10.347a1.92 1.92 0 0 0 .87 1.501l8.796 5.085c.479.278.87.051.87-.504v-10.347a1.92 1.92 0 0 0-.87-1.501h.013z"/></g><path d="M308.828 258.136l6.377-3.684c.479-.278.87-.051.87.505v10.346a1.92 1.92 0 0 1-.87 1.502l-6.377 3.684c-.479.278-.857.051-.857-.504v-10.347c0-.555.391-1.224.857-1.502z" class="F"/><path d="M304.67 248.37l-6.377 3.685c-.479.277-.479.719 0 .997l8.809 5.085a1.9 1.9 0 0 0 1.726 0l6.377-3.685c.479-.277.479-.719 0-.997l-8.809-5.085a1.9 1.9 0 0 0-1.726 0z" class="E"/><path d="M302.704 266.048c-2.004-1.161-3.63-3.975-3.63-6.284s1.626-3.255 3.63-2.094 3.629 3.974 3.629 6.283c0 2.322-1.626 3.256-3.629 2.095z" class="F"/><path d="M302.704 265.631c-1.802-1.047-3.264-3.57-3.264-5.652s1.462-2.928 3.264-1.88 3.264 3.57 3.264 5.652-1.462 2.928-3.264 1.88z" class="E"/><use href="#t" class="B"/><use href="#t" class="C G"/><path d="M302.704 262.515c-.315-.177-.568-.618-.568-.984s.253-.505.568-.328a1.24 1.24 0 0 1 .567.984c0 .366-.252.505-.567.328z" class="B"/><g class="F"><path d="M298.381 254.036c.177.101.315.341.303.53 0 .202-.139.277-.303.176-.176-.1-.302-.34-.302-.529s.138-.278.302-.177zm8.469 4.895a.67.67 0 0 1 .302.53c0 .19-.138.278-.302.177-.177-.101-.303-.341-.303-.53s.139-.278.303-.177zm-8.469 4.858c.177.101.315.341.303.53 0 .202-.139.278-.303.177a.67.67 0 0 1-.302-.53c0-.189.138-.278.302-.177zm8.469 4.909c.176.1.302.34.302.529s-.138.278-.302.177c-.177-.101-.303-.341-.303-.53s.139-.277.303-.176z"/></g><path d="M425.02 279.46c0-.164.063-.277.151-.34l.882-.518c.101-.063.227-.05.378.038l12.338 7.129c.29.177.529.581.529.921v11.495c0 .164-.063.291-.151.341-.101.05-.781.454-.882.517-.101.051-.227.051-.378-.038l-12.338-7.129c-.29-.176-.529-.58-.529-.921V279.46z" class="Q"/><path d="M437.887 286.287l-12.338-7.129c-.29-.164-.529-.038-.529.303v11.494c0 .341.239.758.529.922l12.338 7.129c.29.176.529.038.529-.303v-11.495c0-.341-.239-.757-.529-.921z" class="M"/><path d="M438.429 287.208v11.495c0 .151-.051.277-.126.328l.857-.505c.101-.05.164-.176.164-.341v-11.494a1.04 1.04 0 0 0-.164-.53l-.882.504c.1.164.163.354.163.53l-.012.013z" class="O"/><use href="#u" class="B"/><g class="I C"><use href="#u"/></g><use href="#v" class="B"/><g class="J C"><use href="#v"/></g><path d="M434.9 288.091l-7.952-4.593c-.264-.151-.466-.025-.466.265v6.776a1.02 1.02 0 0 0 .466.807l7.952 4.593c.265.152.466.026.466-.265v-6.775c0-.303-.214-.669-.466-.808z" class="B"/><path d="M429.847 287.561c.34-.189.806-.164 1.31.126 1.034.593 1.865 2.044 1.865 3.231 0 .593-.214 1.009-.541 1.211a9.21 9.21 0 0 1-.467.265c-.34.202-.806.164-1.323-.126-1.033-.593-1.865-2.044-1.865-3.231 0-.593.214-1.009.542-1.211.075-.05.39-.227.466-.277l.013.012z" class="M"/><path d="M432.859 289.946c.101.328.163.669.163.984 0 .593-.214 1.009-.541 1.211a8.5 8.5 0 0 1-.467.265c-.34.202-.806.164-1.323-.126a3.59 3.59 0 0 1-.769-.631l2.937-1.691v-.012z" class="O"/><path d="M432.556 291.195c0-1.186-.832-2.637-1.865-3.23s-1.865-.114-1.865 1.072.832 2.637 1.865 3.23 1.865.114 1.865-1.072z" class="Q"/><path d="M429.758 288.507c.24-.139.567-.113.933.088.731.417 1.323 1.439 1.323 2.284 0 .417-.151.719-.391.858l-.226.139c-.24.139-.567.114-.933-.088-.731-.417-1.323-1.439-1.323-2.284 0-.416.151-.719.391-.846l.226-.138v-.013z" class="B"/><g class="J C"><path d="M431.964 290.463c.025.139.05.277.05.416 0 .417-.151.72-.391.858-.037.026-.189.114-.226.139-.24.139-.568.114-.933-.088-.113-.063-.227-.152-.34-.253l1.84-1.059v-.013z"/></g><use href="#w" class="B"/><g class="L C"><use href="#w"/></g><path d="M429.583 286.678l.289-.164c.026 0 .051 0 .076.05l.567.972-.29.164c-.214-.051-.428-.038-.605.012l-.063-.959s0-.063.026-.075z" class="Q"/><path d="M429.557 286.754l.063.959c.176-.064.378-.064.605-.013l-.567-.972c-.051-.075-.114-.063-.101.038v-.012z" class="O"/><path d="M215.207 346.903c23.553-13.628 67.724-10.17 98.624 7.697l12.766 7.381c30.913 17.867 36.874 43.393 13.308 57.02-23.553 13.627-67.724 10.17-98.637-7.697l-12.753-7.381c-30.913-17.867-36.874-43.393-13.308-57.02z" class="C I"/><g class="B"><use href="#x"/><path d="M302.187 422.269c14.266 0 26.515-2.713 35.412-7.861 8.481-4.895 12.955-11.507 12.955-19.091 0-11.103-9.729-23.355-26.036-32.768l-12.527-7.243c-16.949-9.791-38.474-15.419-59.078-15.419-14.266 0-26.515 2.713-35.4 7.861-8.481 4.896-12.955 11.508-12.955 19.091 0 11.104 9.729 23.356 26.024 32.769l12.526 7.242c16.95 9.792 38.474 15.419 59.066 15.419h.013z"/></g><g class="H"><use href="#x" class="K"/><path d="M250.745 401.337l-9.678-5.603c-12.716-7.356-20.315-16.946-20.315-25.665 0-6.018 3.529-11.229 10.208-15.091 6.931-4.012 16.458-6.132 27.561-6.132 15.979 0 32.69 4.366 45.846 11.962l9.679 5.59c12.715 7.356 20.314 16.945 20.314 25.664 0 6.019-3.528 11.23-10.207 15.091-6.932 4.013-16.459 6.12-27.561 6.133-15.98 0-32.69-4.366-45.834-11.962l-.013.013zm73.004 5.148c6.427-3.71 9.817-8.694 9.817-14.41 0-8.429-7.447-17.766-19.911-24.983l-9.678-5.603c-13.031-7.533-29.603-11.861-45.444-11.861-10.951 0-20.34 2.082-27.157 6.019-6.428 3.71-9.818 8.694-9.818 14.41 0 8.429 7.448 17.766 19.912 24.983l9.678 5.603c13.031 7.532 29.603 11.86 45.444 11.86 10.951 0 20.352-2.082 27.157-6.018z"/></g><path d="M292.937 406.8c8.91 0 16.559-1.703 22.104-4.908 5.293-3.067 8.091-7.18 8.091-11.924 0-6.927-6.075-14.574-16.257-20.466l-7.826-4.518c-10.586-6.119-24.02-9.627-36.886-9.627-8.91 0-16.547 1.691-22.105 4.908-5.293 3.066-8.09 7.18-8.09 11.924 0 6.927 6.074 14.574 16.257 20.466l7.825 4.518c10.586 6.119 24.02 9.627 36.874 9.627h.013z" class="B P"/><path d="M289.282 400.693c6.793 0 12.628-1.3 16.862-3.748 4.033-2.334 6.175-5.476 6.175-9.084 0-5.287-4.637-11.117-12.388-15.596l-5.961-3.445c-8.065-4.668-18.323-7.343-28.128-7.343-6.792 0-12.627 1.299-16.861 3.747-4.033 2.334-6.175 5.476-6.175 9.085 0 5.287 4.637 11.116 12.388 15.608l5.96 3.445c8.066 4.668 18.324 7.343 28.116 7.343l.012-.012z" class="H P"/><path d="M229.397 401.677l12.527 7.243c30.358 17.551 73.722 20.933 96.86 7.558s17.29-38.447-13.069-55.998l-12.539-7.243c-30.359-17.551-73.722-20.933-96.847-7.558-23.138 13.375-17.291 38.446 13.068 55.998zm-24.839-34.838c0-7.583 4.487-14.182 12.968-19.091 8.897-5.135 21.134-7.861 35.399-7.861 20.592 0 42.129 5.628 59.079 15.419l12.539 7.243c16.295 9.425 26.036 21.665 26.036 32.769 0 7.583-4.486 14.182-12.967 19.09-8.897 5.136-21.134 7.861-35.412 7.861-20.592 0-42.117-5.627-59.079-15.419l-12.527-7.242c-16.294-9.426-26.023-21.665-26.023-32.769h-.013z" class="B"/><use href="#y" class="E"/><use href="#z" class="D"/><path d="M227.822 311.989l1.487 7.344 3.037 1.766 3.024-1.754 1.5-7.356-4.524-2.624-4.524 2.624z" class="C G"/><path d="M195.837 293.491l2.294 11.394 2.231 1.287 2.205-1.274 2.319-11.407-4.524-2.612-4.525 2.612z" class="E"/><path d="M200.362 306.172v-10.069l-4.525-2.612 2.294 11.394 2.231 1.287z" class="D"/><path d="M195.85 293.491l1.475 7.356 3.037 1.754 3.024-1.741 1.5-7.369-4.524-2.612-4.512 2.612z" class="C G"/><use href="#AA" class="B"/><g class="J H"><use href="#AA"/></g><g class="B"><path d="M232.346 277.114v42.257l9.137-5.274v-42.258l-9.137 5.275z"/><use href="#AB"/></g><use href="#AB" class="C G"/><use href="#AC" class="B"/><use href="#AC" class="C G"/><use href="#AD" class="B"/><use href="#AD" class="C P"/><path d="M188.339 283.89l-31.694 18.308c-1.349.782-2.433 2.662-2.433 4.227v7.76c0 1.552 1.097 3.445 2.433 4.227l36.256 20.958c1.348.783 3.529.783 4.864 0l31.682-18.308c1.349-.783 2.432-2.663 2.432-4.227v-7.748c0-1.552-1.096-3.444-2.432-4.227l-36.256-20.958c-1.349-.782-3.529-.782-4.877 0l.025-.012z" class="E"/><path d="M229.46 304.848l-36.257-20.959c-1.348-.782-3.528-.782-4.877 0l-31.694 18.309c-1.349.782-1.349 2.031 0 2.814l36.256 20.958c1.349.782 3.529.782 4.865 0l31.682-18.308c1.348-.783 1.348-2.045 0-2.814h.025z" class="C"/><path d="M154.212 314.173v-7.76c0-1.552 1.097-2.183 2.433-1.414l36.256 20.959c1.348.782 2.432 2.662 2.432 4.227v7.747c0 1.552-1.096 2.183-2.432 1.413l-36.256-20.958c-1.349-.782-2.433-2.662-2.433-4.227v.013z" class="F"/><path d="M195.346 337.944v-7.747c0-1.552 1.096-3.445 2.432-4.227l31.682-18.309c1.348-.782 2.432-.151 2.432 1.414v7.747c0 1.552-1.096 3.445-2.432 4.227l-31.682 18.309c-1.349.782-2.432.151-2.432-1.414z" class="D"/><g class="E"><path d="M188.339 269.442l-31.694 18.308c-1.349.783-2.433 2.663-2.433 4.227v7.76c0 1.552 1.097 3.445 2.433 4.227l36.256 20.959c1.348.782 3.529.782 4.864 0l31.682-18.309c1.349-.782 2.432-2.662 2.432-4.227v-7.747c0-1.552-1.096-3.445-2.432-4.227l-36.256-20.959c-1.349-.782-3.529-.782-4.877 0l.025-.012z"/><path d="M229.46 290.4l-36.257-20.958c-1.348-.783-3.528-.783-4.877 0l-31.694 18.308c-1.349.783-1.349 2.032 0 2.814l36.256 20.958c1.349.783 3.529.783 4.865 0l31.682-18.308c1.348-.783 1.348-2.044 0-2.814h.025z"/></g><path d="M154.212 299.737v-7.76c0-1.552 1.097-2.183 2.433-1.413l36.256 20.958c1.348.782 2.432 2.662 2.432 4.227v7.747c0 1.552-1.096 2.183-2.432 1.414l-36.256-20.959c-1.349-.782-2.433-2.662-2.433-4.227v.013z" class="F"/><path d="M195.346 323.509v-7.747c0-1.552 1.096-3.445 2.432-4.227l31.682-18.309c1.348-.782 2.432-.151 2.432 1.414v7.747c0 1.552-1.096 3.445-2.432 4.227l-31.682 18.308c-1.349.783-2.432.152-2.432-1.413z" class="D"/><path d="M189.877 235.815l4.272 2.473c1.348.783 2.596 2.663 2.81 4.202l3.831 28.756c.202 1.54-.718 3.42-2.066 4.202l-31.682 18.309c-1.349.782-3.529.782-4.877 0l-4.272-2.461c-1.349-.782-2.609-2.65-2.811-4.202l-3.818-28.756c-.202-1.539.718-3.419 2.067-4.202l31.681-18.308c1.349-.782 3.529-.782 4.865 0v-.013z" class="E"/><path d="M157.842 291.296l4.31 2.461c1.348.769 2.281.151 2.067-1.401l-3.831-28.756c-.202-1.539-1.462-3.419-2.811-4.202l-4.272-2.473c-1.348-.782-2.268-.164-2.067 1.388l3.781 28.781c.202 1.54 1.462 3.42 2.81 4.19l.013.012z" class="F"/><path d="M153.318 254.124L185 235.815c1.348-.782 3.528-.782 4.864 0l4.272 2.473c1.349.783 1.349 2.044 0 2.814l-31.682 18.309c-1.348.782-3.528.782-4.864 0l-4.272-2.473c-1.349-.783-1.349-2.045 0-2.814z" class="E"/><path d="M194.136 241.09l-31.682 18.308c-1.348.782-2.268 2.663-2.066 4.202l3.831 28.756c.201 1.539 1.461 2.158 2.81 1.388l31.682-18.309c1.348-.782 2.268-2.662 2.066-4.201l-3.831-28.756c-.201-1.54-1.461-2.158-2.81-1.388z" class="D"/><path d="M142.997 361.022l2.293 11.382 2.231 1.287 2.205-1.275 2.319-11.394-4.524-2.624-4.524 2.624z" class="E"/><path d="M147.521 373.691v-10.057l-4.524-2.612 2.293 11.382 2.231 1.287z" class="D"/><path d="M142.997 361.022l1.487 7.344 3.037 1.767 3.024-1.754 1.5-7.357-4.524-2.624-4.524 2.624z" class="C G"/><path d="M111.025 342.524l2.281 11.394 2.23 1.287 2.218-1.274 2.307-11.407-4.525-2.611-4.511 2.611z" class="E"/><path d="M115.536 355.205v-10.069l-4.511-2.612 2.281 11.394 2.23 1.287z" class="D"/><path d="M111.025 342.524l1.474 7.357 3.037 1.754 3.038-1.742 1.487-7.369-4.525-2.611-4.511 2.611z" class="C G"/><use href="#AE" class="E"/><use href="#AF" class="C"/><path d="M115.537 336.544v-7.76c0-1.552 1.096-2.183 2.432-1.414l36.256 20.959c1.349.782 2.432 2.662 2.432 4.227v7.747c0 1.552-1.096 2.183-2.432 1.413l-36.256-20.958c-1.349-.782-2.432-2.662-2.432-4.227v.013z" class="F"/><path d="M156.657 360.316v-7.747c0-1.552 1.097-3.445 2.432-4.227l31.682-18.309c1.349-.782 2.432-.151 2.432 1.413v7.748c0 1.552-1.096 3.444-2.432 4.227l-31.682 18.308c-1.348.782-2.432.152-2.432-1.413z" class="D"/><g class="E"><path d="M149.651 291.813l-31.695 18.309c-1.348.782-2.432 2.662-2.432 4.227v7.76c0 1.552 1.096 3.445 2.432 4.227l36.257 20.958c1.348.782 3.528.782 4.864 0l31.682-18.308c1.348-.783 2.432-2.663 2.432-4.227v-7.748c0-1.552-1.096-3.444-2.432-4.227l-36.257-20.958c-1.348-.782-3.528-.782-4.877 0l.026-.013z"/><path d="M190.784 312.772l-36.256-20.959c-1.349-.782-3.529-.782-4.877 0l-31.695 18.309c-1.348.782-1.348 2.031 0 2.814l36.257 20.958c1.348.782 3.528.782 4.864 0l31.682-18.309c1.348-.782 1.348-2.044 0-2.813h.025z"/></g><path d="M115.537 322.096v-7.76c0-1.552 1.096-2.183 2.432-1.413l36.256 20.958c1.349.783 2.432 2.663 2.432 4.227v7.748c0 1.552-1.096 2.183-2.432 1.413l-36.256-20.958c-1.349-.783-2.432-2.663-2.432-4.227v.012z" class="F"/><path d="M156.657 345.868v-7.747c0-1.552 1.097-3.445 2.432-4.227l31.682-18.309c1.349-.782 2.432-.151 2.432 1.413v7.748c0 1.552-1.096 3.445-2.432 4.227l-31.682 18.308c-1.348.783-2.432.152-2.432-1.413z" class="D"/><path d="M151.188 258.174l4.272 2.461c1.349.782 2.596 2.662 2.81 4.201l3.832 28.756c.201 1.54-.719 3.42-2.067 4.202l-31.682 18.309c-1.348.782-3.529.782-4.877 0l-4.272-2.461c-1.349-.782-2.609-2.649-2.81-4.201l-3.819-28.757c-.202-1.539.718-3.419 2.067-4.201l31.682-18.309c1.348-.782 3.528-.782 4.864 0z" class="E"/><path d="M119.166 313.655l4.31 2.461c1.348.769 2.281.151 2.067-1.401l-3.831-28.756c-.202-1.54-1.462-3.42-2.811-4.202l-4.272-2.473c-1.348-.782-2.268-.164-2.067 1.388l3.781 28.781c.202 1.54 1.462 3.42 2.81 4.189l.013.013z" class="F"/><path d="M114.642 276.483l31.681-18.309c1.349-.782 3.529-.782 4.865 0l4.272 2.473c1.348.783 1.348 2.044 0 2.814l-31.682 18.309c-1.348.782-3.528.782-4.864 0l-4.272-2.474c-1.349-.782-1.349-2.044 0-2.813z" class="E"/><path d="M155.46 263.461l-31.682 18.309c-1.348.782-2.268 2.662-2.066 4.201l3.831 28.757c.201 1.539 1.461 2.157 2.81 1.388l31.682-18.309c1.348-.782 2.268-2.662 2.066-4.202l-3.831-28.756c-.201-1.539-1.461-2.157-2.81-1.388z" class="D"/><use href="#AG" class="B"/><g class="J H"><use href="#AG"/></g><g class="B"><path d="M147.521 326.146v42.258l9.136-5.275v-42.257l-9.136 5.274z"/><use href="#AH"/></g><use href="#AH" class="C G"/><use href="#AI" class="B"/><use href="#AI" class="C J"/><use href="#AJ" class="B"/><use href="#AJ" class="C P"/><path d="M186.008 401.791l-2.281 11.381-2.231 1.287-2.205-1.275-2.319-11.393 4.524-2.625 4.512 2.625z" class="E"/><path d="M181.496 414.459v-10.057l4.512-2.611-2.281 11.381-2.231 1.287z" class="D"/><path d="M186.008 401.791l-1.475 7.343-3.037 1.767-3.024-1.754-1.5-7.356 4.524-2.625 4.512 2.625z" class="C G"/><path d="M222.516 380.63l-2.293 11.382-2.218 1.287-2.218-1.275-2.307-11.394 4.525-2.611 4.511 2.611z" class="E"/><path d="M218.005 393.299v-10.057l4.511-2.612-2.293 11.382-2.218 1.287z" class="D"/><path d="M222.516 380.63l-1.474 7.357-3.05 1.754-3.024-1.754-1.488-7.357 4.525-2.611 4.511 2.611z" class="C G"/><use href="#AK" class="B"/><g class="J H"><use href="#AK"/></g><use href="#AL" class="B"/><use href="#AL" class="C G"/><g class="B"><path d="M181.496 366.928v42.257l41.121-23.772v-42.257l-41.121 23.772zm3.377 1.943l34.379-19.861v34.447l-34.379 19.861v-34.447z"/><use href="#AM"/></g><use href="#AM" class="C G"/><use href="#AN" class="B"/><use href="#AN" class="C J"/><path d="M230.014 371.029l31.695 18.308c1.348.783 2.432 2.663 2.432 4.227v7.76c0 1.552-1.096 3.445-2.432 4.227l-36.257 20.958c-1.348.783-3.528.783-4.864 0l-31.682-18.308c-1.348-.782-2.432-2.662-2.432-4.227v-7.747c0-1.552 1.096-3.445 2.432-4.227l36.256-20.959c1.349-.782 3.529-.782 4.865 0l-.013-.012z" class="E"/><path d="M188.894 391.974l36.256-20.958c1.348-.782 3.529-.782 4.864 0l31.695 18.308c1.348.783 1.348 2.032 0 2.814l-36.257 20.959c-1.348.782-3.528.782-4.864 0l-31.682-18.309c-1.348-.782-1.348-2.044 0-2.814h-.012z" class="C"/><path d="M264.141 401.311v-7.76c0-1.552-1.097-2.183-2.432-1.413l-36.257 20.958c-1.348.783-2.432 2.663-2.432 4.227v7.748c0 1.552 1.096 2.183 2.432 1.413l36.257-20.958c1.348-.783 2.432-2.663 2.432-4.227v.012z" class="F"/><path d="M223.02 425.083v-7.747c0-1.552-1.096-3.445-2.432-4.227l-31.682-18.308c-1.348-.783-2.432-.152-2.432 1.413v7.747c0 1.552 1.096 3.445 2.432 4.227l31.682 18.309c1.348.782 2.432.151 2.432-1.414z" class="D"/><path d="M230.014 356.581l31.695 18.308c1.348.783 2.432 2.663 2.432 4.227v7.76c0 1.552-1.096 3.445-2.432 4.227l-36.257 20.959c-1.348.782-3.528.782-4.864 0l-31.682-18.309c-1.348-.782-2.432-2.662-2.432-4.227v-7.747c0-1.552 1.096-3.445 2.432-4.227l36.256-20.958c1.349-.783 3.529-.783 4.865 0l-.013-.013z" class="E"/><path d="M188.894 377.539l36.256-20.958c1.348-.782 3.529-.782 4.864 0l31.695 18.308c1.348.783 1.348 2.032 0 2.814l-36.257 20.958c-1.348.783-3.528.783-4.864 0l-31.682-18.308c-1.348-.782-1.348-2.044 0-2.814h-.012z" class="D"/><path d="M264.141 386.864v-7.76c0-1.552-1.097-2.183-2.432-1.413l-36.257 20.958c-1.348.782-2.432 2.662-2.432 4.227v7.747c0 1.552 1.096 2.183 2.432 1.414l36.257-20.959c1.348-.782 2.432-2.662 2.432-4.227v.013z" class="F"/><path d="M223.02 410.636v-7.748c0-1.552-1.096-3.444-2.432-4.227l-31.682-18.308c-1.348-.782-2.432-.152-2.432 1.413v7.747c0 1.552 1.096 3.445 2.432 4.227l31.682 18.309c1.348.782 2.432.151 2.432-1.413z" class="D"/><path d="M225.137 364.316l-31.682-18.309c-1.348-.782-3.528-.782-4.864 0l-4.272 2.473c-1.349.783-2.243 2.65-2.004 4.189l3.693 23.495c.239 1.539 1.524 3.407 2.873 4.189l31.682 18.308c1.348.783 3.528.783 4.877 0l4.31-2.46c1.348-.77 2.243-2.637 2.003-4.177l-3.73-23.519c-.239-1.54-1.537-3.407-2.873-4.189h-.013z" class="E"/><path d="M229.75 396.201l-4.31 2.46c-1.349.77-2.634.152-2.874-1.387l-3.692-23.495c-.239-1.539.655-3.407 2.004-4.189l4.272-2.473c1.348-.782 2.634-.164 2.873 1.375l3.73 23.52c.24 1.539-.655 3.407-2.003 4.176v.013z" class="F"/><path d="M225.137 364.316l-31.682-18.309c-1.348-.782-3.528-.782-4.864 0l-4.272 2.473c-1.348.783-1.348 2.044 0 2.814l31.682 18.309c1.348.782 3.528.782 4.864 0l4.272-2.474c1.349-.782 1.349-2.044 0-2.813z" class="E"/><path d="M184.319 351.281l31.682 18.309c1.348.782 2.634 2.649 2.873 4.189l3.692 23.494c.24 1.54-.655 2.145-2.003 1.376l-31.682-18.309c-1.349-.782-2.634-2.65-2.873-4.189l-3.693-23.494c-.239-1.54.655-2.145 2.004-1.376z" class="D"/><path d="M270.833 450.824l-2.281 11.381-2.231 1.287-2.218-1.274-2.306-11.394 4.524-2.612 4.512 2.612z" class="E"/><path d="M266.321 463.492v-10.056l4.512-2.612-2.281 11.381-2.231 1.287z" class="D"/><path d="M270.833 450.824l-1.475 7.343-3.037 1.767-3.037-1.754-1.487-7.356 4.524-2.612 4.512 2.612z" class="C G"/><path d="M302.817 432.326l-2.294 11.394-2.23 1.287-2.206-1.275-2.306-11.406 4.512-2.612 4.524 2.612z" class="E"/><path d="M298.293 445.007v-10.069l4.524-2.612-2.294 11.394-2.23 1.287z" class="D"/><path d="M302.817 432.326l-1.474 7.356-3.05 1.754-3.025-1.741-1.487-7.369 4.512-2.612 4.524 2.612z" class="C G"/><path d="M268.703 393.387l31.694 18.309c1.349.782 2.433 2.662 2.433 4.227v7.76c0 1.552-1.097 3.444-2.433 4.227l-36.256 20.958c-1.348.782-3.529.782-4.864 0l-31.682-18.309c-1.349-.782-2.432-2.662-2.432-4.227v-7.747c0-1.552 1.096-3.445 2.432-4.227l36.256-20.958c1.349-.783 3.529-.783 4.877 0l-.025-.013z" class="E"/><path d="M227.582 414.345l36.256-20.958c1.349-.782 3.529-.782 4.877 0l31.695 18.309c1.348.782 1.348 2.031 0 2.813l-36.256 20.959c-1.349.782-3.529.782-4.865 0l-31.682-18.309c-1.348-.782-1.348-2.044 0-2.814h-.025z" class="C"/><path d="M302.83 423.67v-7.76c0-1.552-1.097-2.183-2.433-1.413l-36.256 20.958c-1.348.782-2.432 2.663-2.432 4.227v7.748c0 1.552 1.096 2.182 2.432 1.413l36.256-20.959c1.349-.782 2.433-2.662 2.433-4.227v.013z" class="F"/><path d="M261.696 447.442v-7.747c0-1.552-1.096-3.445-2.432-4.227l-31.682-18.309c-1.348-.782-2.432-.151-2.432 1.413v7.748c0 1.552 1.096 3.444 2.432 4.227l31.682 18.308c1.348.782 2.432.151 2.432-1.413z" class="D"/><path d="M268.703 378.94l31.694 18.308c1.349.783 2.433 2.663 2.433 4.227v7.76c0 1.552-1.097 3.445-2.433 4.227l-36.256 20.959c-1.348.782-3.529.782-4.864 0l-31.682-18.309c-1.349-.782-2.432-2.662-2.432-4.227v-7.747c0-1.552 1.096-3.445 2.432-4.227l36.256-20.959c1.349-.782 3.529-.782 4.877 0l-.025-.012z" class="E"/><path d="M227.582 399.898l36.256-20.958c1.349-.783 3.529-.783 4.877 0l31.695 18.308c1.348.783 1.348 2.032 0 2.814l-36.256 20.958c-1.349.783-3.529.783-4.865 0l-31.682-18.308c-1.348-.783-1.348-2.044 0-2.814h-.025z" class="D"/><path d="M302.83 409.235v-7.76c0-1.552-1.097-2.183-2.433-1.413l-36.256 20.958c-1.348.782-2.432 2.662-2.432 4.227v7.747c0 1.552 1.096 2.183 2.432 1.414l36.256-20.959c1.349-.782 2.433-2.662 2.433-4.227v.013z" class="F"/><path d="M261.696 433.007v-7.747c0-1.552-1.096-3.445-2.432-4.227l-31.682-18.309c-1.348-.782-2.432-.151-2.432 1.414v7.747c0 1.552 1.096 3.445 2.432 4.227l31.682 18.308c1.348.783 2.432.152 2.432-1.413z" class="D"/><path d="M263.826 386.675l-31.682-18.309c-1.348-.782-3.528-.782-4.864 0l-4.272 2.461c-1.349.782-2.244 2.649-2.004 4.189l3.692 23.494c.24 1.539 1.525 3.407 2.874 4.189l31.681 18.309c1.349.782 3.529.782 4.877 0l4.31-2.461c1.349-.769 2.244-2.637 2.004-4.176l-3.73-23.52c-.24-1.539-1.538-3.407-2.873-4.189l-.013.013z" class="E"/><path d="M268.438 418.56l-4.31 2.46c-1.348.77-2.633.152-2.873-1.388l-3.692-23.494c-.24-1.539.655-3.407 2.003-4.189l4.273-2.473c1.348-.783 2.633-.164 2.873 1.375l3.73 23.52c.24 1.539-.655 3.407-2.004 4.176v.013z" class="F"/><path d="M263.826 386.675l-31.682-18.309c-1.348-.782-3.528-.782-4.864 0l-4.272 2.461c-1.349.782-1.349 2.044 0 2.813l31.681 18.309c1.349.782 3.529.782 4.865 0l4.272-2.473c1.348-.783 1.348-2.044 0-2.814v.013z" class="E"/><path d="M223.008 373.64l31.681 18.309c1.349.782 2.634 2.649 2.874 4.189l3.692 23.494c.24 1.54-.655 2.145-2.004 1.376l-31.681-18.309c-1.349-.782-2.634-2.65-2.874-4.189l-3.692-23.495c-.24-1.539.655-2.145 2.004-1.375z" class="D"/><use href="#AO" class="B"/><use href="#AO" class="C G"/><path d="M181.496 372.202l3.377-1.956 77.668 44.907-3.378 1.943-77.667-44.894z" class="B"/><path d="M181.496 372.202l3.377-1.956 77.668 44.907-3.378 1.943" class="H J"/><use href="#AP" class="B"/><g class="J H"><use href="#AP"/></g><use href="#AQ" class="B"/><use href="#AQ" class="C G"/><g class="B"><path d="M266.321 415.961v42.257l41.121-23.772v-42.257l-41.121 23.772zm3.378 1.943l34.378-19.86v34.446l-34.378 19.861v-34.447z"/><use href="#AR"/></g><use href="#AR" class="C G"/><use href="#AS" class="B"/><use href="#AS" class="C J"/><path d="M152.788 42.699L52.576 170.164l83.615 48.339L236.416 91.038l-83.628-48.339z" class="E"/><path d="M52.576 170.165v7.722l83.615 48.339v-7.722l-83.615-48.339z" class="F"/><g class="D"><path d="M236.416 91.038v7.735L136.191 226.225v-7.722L236.416 91.038z"/><path d="M277.235 63.859l-124.446-21.16 200.449 115.87 124.434 21.16-200.437-115.87z"/></g><path d="M236.417 98.772l116.821 67.531v-7.735l-116.821-67.53v7.735z" class="F"/><path d="M353.238 166.303l124.434 21.148v-7.722l-124.434-21.161v7.735z" class="E"/><path d="M458.617 450.975c-.718 1.426-.869 2.763-.806 3.962s.781 2.738.454 5.451c-.328 2.7-.933 3.546-1.223 5.451s-.063 3.255 1.059 5.072 3.579 3.256 8.431 3.079c3.931-.139 5.507-2.158 5.595-4.467l-13.51-18.535v-.013z" class="F"/><path d="M459.764 445.385c-.151.265-.113.883-.239 1.527-.151.908-.416 1.779-.63 2.675l-.164.707c-.378 1.804 0 3.671-.025 5.514-.038 2.182-.643 4.302-1.134 6.422-.882 3.823-1.021 6.372 2.319 9.022 1.764 1.4 3.679 1.451 5.923 1.501 1.688.038 3.906-.454 4.914-1.186 1.424-1.06 1.412-1.943 1.424-2.284.126-4.062-1.335-8.782-1.625-12.832-.076-1.047-.177-2.246-.076-3.281.139-1.35.605-2.675.756-4.037.051-.505.088-1.06-.189-1.489-.365-.581-1.121-.719-1.802-.82-1.777-.227-3.554-.417-5.343-.543-.429-.025-.895-.038-1.21.24-.353.315-.353.833-.441 1.299-.088.455-.429.972-.882.884-.303-.063-.492-.366-.542-.669a45.54 45.54 0 0 1-.164-2.965s-.63-.101-.844.29l-.026.025z" class="D"/><path d="M518.78 458.848c.29.543.252 1.565-.038 2.234s-3.604 2.725-8.204 2.599-7.826-1.842-9.615-2.94c-1.79-1.085-3.63-1.236-5.898-1.274-2.281-.038-4.94-.858-5.709-1.893-.516-1.312.025-3.066.025-3.066l29.452 4.34h-.013z" class="F"/><path d="M502.158 445.259c.189.315.328.669.479 1.009.554 1.237 1.436 2.335 2.52 3.155 1.525 1.148 3.352 1.968 5.079 2.738 1.134.504 2.319.643 3.453 1.047 1.247.442 2.596.934 3.718 1.64 1.852 1.136 2.205 4.19.201 5.477-1.726 1.11-6.339 2.422-11.266 1.236-2.684-.643-5.759-3.369-9.263-3.508-2.23-.088-6.452-.542-7.952-2.17-.554-2.435.051-3.129.542-5.199.277-1.16.391-2.359.416-3.558.013-.631-.416-2.435.907-2.662l.139 1.35s.252.454 1.626.707c.441.075.794.656 1.033 1.198.189.417.378.934.832.934.302 0 .554-.265.693-.543.126-.277.164-.593.252-.883.29-.971 1.147-1.678 2.079-2.069.794-.328 1.601-.379 2.433-.517.63-.101 1.146-.366 1.713.164a1.64 1.64 0 0 1 .341.441l.025.013z" class="D"/><path d="M465.612 341.124c-1.702 16.617-1.676 24.504-3.844 57.663 0 0-1.815 9.325-2.394 19.179l-1.614 32.302s6.478 5.325 13.989 2.864l9.149-46.761c2.268-10.675 4.575-24.1 4.575-24.1l1.071 16.63s-.303 6.624-.088 16.517c.113 5.299 2.659 33.916 2.659 33.916s9.086 4.139 15.223-1.173l.542-51.216c.101-5.463-.832-60.414-.832-60.414l-38.399 4.58-.037.013z" class="E"/><path d="M485.448 382.271l4.083-22.637s7.183-.631 11.153-4.643c0 0-.706 3.937-9.742 6.283l-3.655 18.889-.768 18.725-1.071-16.63v.013z" class="F"/><g class="D"><path d="M457.962 445.877c3.352 2.839 6.818 3.596 9.968 3.596 0 0-6.187-.921-9.905-5.009l-.063 1.413zm30.825.076s6.326 2.208 11.682.517c0 0-4.133 2.776-11.594.492l-.088-1.022v.013z"/></g><path d="M499.94 292.823c2.457-.278 5.28 1.703 6.654 4.631 2.545 5.438 7.738 17.538 11.884 24.895l15.715-3.47-4.26 11.987s-8.254 2.826-12.3 3.507-5.318.026-7.674-3.406c-2.042-2.953-10.46-17.956-10.46-17.956l.453-20.201-.012.013z" class="S"/><path d="M540.166 313.983h.013l-.832-.77c-.189-.151-.492-.214-.882-.126l-9.414 2.158c-.87.202-1.84 1.035-2.168 1.88l-7.473 19.091c-.176.441-.126.795.088.997l.857.807c.189.164.492.227.882.126l9.414-2.157c.87-.202 1.84-1.035 2.168-1.88l7.473-19.091c.189-.467.113-.833-.126-1.035z" class="E"/><path d="M528.849 316.532c-.504.366-.932.87-1.134 1.375l-7.473 19.091c-.164.429-.139.77.05.972l-.806-.745c-.215-.214-.265-.555-.089-.997l7.474-19.091c.176-.466.579-.946 1.046-1.312l.92.707h.012z" class="F"/><path d="M520.242 336.998l7.473-19.091c.328-.833 1.298-1.678 2.167-1.88l9.414-2.158c.87-.202 1.311.316.983 1.149l-7.473 19.09c-.327.833-1.298 1.679-2.167 1.88l-9.414 2.158c-.87.202-1.311-.315-.983-1.148z" class="D"/><path d="M538.88 318.626c1.815.909 3.138 2.549 2.861 4.72-.554 4.365-3.176 11.318-10.107 8.668-3.528-1.35-4.272-6.094-1.033-7.028 5.709-1.653 7.233-3.647 7.233-3.647l1.046-2.713z" class="S"/><use href="#AT" class="B"/><use href="#AT" class="C G"/><path d="M519.158 322.197c-4.411 1.224-8.922 5.123-9.01 9.072l.403.556s-.87.807-1.739-.038c-1.298-1.237-3.239-4.707-3.529-5.514-.29-.82.895-3.256 3.819-5.729s7.221-2.637 8.141-2.233c1.449.921 1.915 3.899 1.915 3.899v-.013z" class="Q"/><use href="#AU" class="B"/><use href="#AU" class="C G"/><path d="M504.464 305.769c-1.613-11.823-1.701-14.586-10.397-14.927l-12.904-.871-15.148 3.924c-3.756 1.123-3.793 9.577-2.924 15.154.882 5.59 1.966 10.12 1.613 19.142-.151 8.895-2.407 13.589-.214 15.949 8.028 5.097 31.354 3.52 39.848-1.603 1.789-.883-.05-7.646.126-13.122.302-9.388.504-20.138.025-23.646h-.025z" class="B"/><path d="M491.005 290.564s4.436 4.025 2.961 7.798-7.889 4.429-12.892.846c-5.003-3.571-4.562-7.76-4.562-7.76l1.878-.581s.252 1.603 1.033 2.549 10.044 4.845 10.246 5.981l1.853-3.786s-1.614-5.223-1.614-5.223l1.097.164v.012z" class="M"/><path d="M501.566 258.275c.088-.366.138-.732.151-1.098.063-1.325-.366-2.725-1.374-3.608-.995-.884-2.596-1.111-3.692-.354.012-2.17-1.626-4.403-3.794-4.517-1.487-.076-2.835.782-4.171 1.438-2.029.997-4.222 1.578-6.364 2.31s-4.272 1.627-5.948 3.141-2.848 3.735-2.621 5.981c-1.765.757-2.735 2.776-2.811 4.694-.126 2.927 1.223 5.666 2.319 8.29l3.453 7.975 1.336 2.801-.252-4.808c2.004-.176 3.692-.29 5.608-.997 1.802-.668 3.541-1.501 5.205-2.46 3.326-1.893 6.376-4.227 9.3-6.687 1.512-1.275 3.05-2.688 3.604-4.581.479-1.653.063-3.545-1.058-4.845.478-.833.894-1.716 1.109-2.65v-.025z" class="E"/><path d="M481.868 261.77c0 1.729-.781 4.606-3.226 6.738.265 1.931.53 3.924.139 5.829-.088.417-.202.821-.441 1.174-.24.341-.605.618-1.021.656-.567.038-.794-.303-.97-.744-.227-.568-.555-1.098-.857-1.641-.139-.265-.315-.429-.504-.631-.857-.795-3.39-1.754-4.562.947-1.21 2.788 1.008 6.536 3.062 7.066 2.394.618 3.579-1.249 3.579-1.249l.34 12.378c1.903 1.993 10.183 4.757 12.262 7.129.933-1.603 3.617-5.552.088-7.811l-.088-4.05s3.34.177 5.671-.278c1.827-.353 3.503-1.93 3.945-4.782 1.046-6.902.667-12.782 0-16.113-.668-3.28-2.445-5.476-3.428-5.968.038.707-.542 2.435-4.096 2.927-3.768.518-7.196-.441-9.893-1.564v-.013z" class="S"/><path d="M489.682 287.548c-3.252-.29-5.57-.744-7.398-1.703-1.335-.707-2.507-1.867-2.848-2.65 0 0 .429 1.691 1.676 3.18 1.525 1.817 8.608 2.839 8.608 2.839l-.038-1.653v-.013z" fill="#f0997a"/><g class="F"><path d="M487.464 272.003c.025.656-.479 1.211-1.109 1.236s-1.172-.504-1.185-1.16c-.025-.657.479-1.212 1.109-1.237a1.18 1.18 0 0 1 1.185 1.161zm-.857-4.038l-2.861 1.767c-.479-.82-.214-1.893.567-2.372.794-.492 1.815-.215 2.294.605z"/></g><path d="M487.59 279.688l3.944 1.337c-.353 1.136-1.512 1.741-2.608 1.375-1.084-.366-1.689-1.59-1.336-2.712z" fill="#b16668"/><path d="M488.825 280.848c-.416-.239-.87-.303-1.311-.214.101.795.63 1.501 1.412 1.766.277.101.567.126.844.089 0-.657-.34-1.287-.945-1.641z" fill="#f28f8f"/><g class="F"><path d="M498.087 269l-3.075-1.186c.303-.846 1.235-1.262 2.08-.934s1.298 1.275.995 2.12zm-.768 2.536c.025.669-.479 1.224-1.122 1.237-.643.025-1.172-.505-1.197-1.174s.479-1.224 1.122-1.236c.642-.026 1.172.504 1.197 1.173z"/></g><path d="M489.984 269.025l1.248 8.707 4.461-1.022-5.709-7.685z" fill="#f0997a"/><g class="N"><path d="M489.682 299.397c-1.424-.871-4.26-2.789-5.659-.972-1.436 1.867-2.394 3.899-3.428 3.596s-4.851-2.927-6.175-5.703c-1.058-2.233-1.058-4.379-1.058-4.379s1.348-1.917 1.991-3.23c.58-1.161.996-1.716 1.89-1.779l.076 2.915s1.172 2.069 2.911 3.293c2.533 1.779 7.561 2.246 9.426 6.271l.026-.012z"/><path d="M489.682 299.397c.844-.782 2.066-2.751 3.465-2.36 1.386.391 2.76 3.104 2.798 2.36s-1.374-5.262-2.432-6.826-2.874-4.404-3.819-4.341l.076 3.369s1.651 2.095 1.462 3.344c-.177 1.262-1.374 3.243-1.55 4.454z"/></g><path d="M447.943 330.133c.051-2.611 2.244-12.895 5.432-23.456 3.024-10.006 7.675-11.533 12.728-12.404 0 0 3.806 8.063 1.853 17.287l-7.398 19.419" fill="#ffa8a7"/><path d="M473.135 359.697c-2.029-.782-2.709-2.321-2.709-2.321 1.272.668 2.192.744 2.986.769 1.777.051 2.218-.971 2.218-1.539 0-.644-.844-.719-2.407-1.552-1.336-.719-2.256-1.678-4.423-2.839-1.475-.795-2.042-.719-3.05-1.792-1.588-1.691-2.054-5.022-3.604-9.514-1.664-4.858-1.916-6.977-1.916-6.977l-12.677-4.631c-.87 3.81.453 7.129 4.347 16.138 1.034 2.953 5.381 10.41 7.121 13.324 2.356 3.937 4.083 6.183 6.225 7.861 2.394.568 8.04-.933 7.876-6.952l.013.025z" class="S"/><use href="#AV" class="B"/><use href="#AV" class="C G"/><path d="M461.201 329.591c.479.29.718.82.441 2.12-.29 1.299.113 4.302-.517 4.832-.617.53-3.1 1.174-6.692.833-4.007-.378-7.221-2.322-7.75-4.227s-.076-5.993.366-7.671c.428-1.679 1.373-1.452 1.373-1.452l-.227 1.653s1.248 2.499 5.419 3.887 7.121 1.362 7.121 1.362l.453-1.312.013-.025z" class="Q"/><use href="#AW" class="B"/><use href="#AW" class="C I"/><g class="B"><path d="M550.752 280.558l-5.974 13.438c-.516 1.173-2.218 1.06-2.583-.164l-6.49-21.993 15.034 8.719h.013z"/><path d="M521.956 139.705l56.697 32.781c.718.417 1.298 1.426 1.298 2.259v114.911c0 .832-.592 1.829-1.311 2.246l-4.662 2.612c-.719.403-1.891.403-2.609-.013l-56.697-32.781c-.719-.417-1.298-1.426-1.298-2.259V144.55c0-.833.592-1.829 1.31-2.246l4.663-2.612c.719-.403 1.891-.403 2.609.013z"/></g><path d="M513.399 144.323c.101-.656.643-.896 1.286-.517l56.697 32.781c.365.214.68.568.92.972l7.258-4.139c-.239-.391-.541-.732-.894-.921l-56.697-32.781c-.719-.417-1.878-.417-2.609 0l-4.663 2.611c-.655.379-1.197 1.237-1.298 2.007v-.013z" class="H K"/><path d="M572.68 293.744V178.833c0-.833-.58-1.842-1.298-2.258l-56.698-32.782c-.718-.416-1.298-.075-1.298.758v114.91c0 .833.58 1.843 1.298 2.259l56.698 32.781c.718.417 1.298.076 1.298-.757z" class="B"/><path d="M571.382 294.501c.693.404 1.953.416 2.608.013l4.663-2.625c.718-.404 1.311-1.413 1.311-2.233V174.745c0-.429-.164-.909-.416-1.325l-7.246 4.139c.239.403.39.87.39 1.287v114.91c0 .758-.542 1.199-1.298.758l-.012-.013z" class="C J"/><g class="M"><use href="#AX"/><path d="M546.177 249.442l17.126 9.893c.731.416 1.311 1.438 1.311 2.284v2.662c0 .845-.592 1.186-1.311.757l-17.126-9.892c-.731-.417-1.311-1.439-1.311-2.284v-2.663c0-.845.593-1.186 1.311-.757zm-24.7-27.519l17.126 9.892c.731.417 1.311 1.439 1.311 2.284v2.662c0 .846-.592 1.187-1.311.758l-17.126-9.893c-.731-.416-1.311-1.438-1.311-2.284v-2.662c0-.845.593-1.186 1.311-.757zm24.7 14.258l17.126 9.893c.731.416 1.311 1.438 1.311 2.283v2.663c0 .845-.592 1.186-1.311.757l-17.126-9.893c-.731-.416-1.311-1.438-1.311-2.283v-2.663c0-.845.593-1.186 1.311-.757zm-24.7 10.423l17.126 9.892c.731.416 1.311 1.438 1.311 2.284v2.662c0 .845-.592 1.186-1.311.757l-17.126-9.892c-.731-.417-1.311-1.439-1.311-2.284v-2.662c0-.846.593-1.187 1.311-.757zm24.7 14.258l17.126 9.892c.731.417 1.311 1.439 1.311 2.284v2.662c0 .846-.592 1.186-1.311.757l-17.126-9.892c-.731-.416-1.311-1.438-1.311-2.284v-2.662c0-.846.593-1.186 1.311-.757zm-6.733-82.743c.675 0 1.392.168 2.151.485 5.313 2.28 10.163 10.978 10.163 18.22 0 2.998-.843 5.362-2.298 6.439-1.982 1.478-3.247 3.906-3.69 7.009l-4.576-2.639c-.147-3.8-1.37-8.065-3.437-12.076-1.94-3.758-2.91-7.917-2.657-11.443.275-3.694 1.94-5.995 4.365-5.995m0-1.647c-3.289 0-5.672 2.829-6.009 7.537-.295 3.99.864 8.466 2.846 12.308 2.046 3.927 3.269 8.276 3.269 12.139v.148l7.696 4.434v-.148c0-3.821 1.181-6.777 3.205-8.297 1.834-1.372 2.952-4.075 2.952-7.769 0-7.896-5.124-17.143-11.154-19.74-.991-.422-1.94-.633-2.805-.633v.021zm6.41 18.853l-6.157 2.533 2.826-3.927-2.151-5.003 6.684-2.027-3.226 4.159 2.024 4.265zm1.371 24.3l-7.696-4.455v-4.729l7.696 4.433v4.751z"/></g></g><defs><clipPath id="A"><path d="M0 0h586v550H0z" class="H"/></clipPath><path id="B" d="M57.554 292.078a7.26 7.26 0 0 0-3.97.72c-2.382 1.148-4.348 2.99-6.465 4.58s-4.524 3.016-7.171 3.104-5.495-1.565-5.973-4.164c-.088-.454-.101-.934-.34-1.325-.441-.719-1.462-.845-2.256-.58s-1.449.832-2.18 1.261c-2.672 1.578-6.024 1.224-9.099.77-2.558-.366-5.784-1.501-5.772-4.088 0-1.691 1.475-2.927 2.634-4.164 1.159-1.224 2.105-3.192 1.046-4.504-.366-.455-.92-.732-1.475-.909-3.201-1.047-7.108.341-9.817-1.653-2.004-1.489-2.47-4.505-1.424-6.776 1.059-2.258 3.34-3.772 5.759-4.391 2.142-.542 4.877-.795 5.671-2.864.706-1.817-.706-3.773-2.294-4.883s-3.503-1.893-4.612-3.495c-1.147-1.653-1.134-3.975-.151-5.729s2.835-2.94 4.814-3.306c.983-.189 2.029-.189 2.924-.643s1.563-1.59 1.084-2.461c-.29-.53-.895-.807-1.248-1.287-.68-.959-.088-2.359.857-3.041.958-.681 2.155-.883 3.264-1.249 2.319-.769 4.562-3.028 3.882-5.375-.718-2.448-4.045-3.243-5.028-5.59-.869-2.082.517-4.504 2.369-5.766 1.865-1.274 4.121-1.779 6.163-2.751 2.041-.959 4.007-2.662 4.171-4.908.176-2.309-1.563-4.24-2.961-6.069-1.412-1.83-2.596-4.391-1.374-6.347 1.185-1.88 3.806-1.994 5.923-2.662 2.571-.821 4.751-2.789 5.822-5.262.567-1.3.832-2.725 1.512-3.962 2.092-3.874 7.372-5.577 11.443-5.098 2.142.253 2.848 1.073 3.894 2.637.592.934 1.21 1.401 1.424 2.688.302 1.88-.68 4.252 1.084 5.678 2.684 2.17 6.78-.757 6.641 4.101-.063 1.918-.252 4.227-.907 6.044-.731 2.044-2.193 2.927-.983 5.211 1.575 2.965 2.609 2.94 5.759 2.94 2.281 0 4.197-.126 5.873 1.602 2.949 3.054 1.197 5.817-1.424 8.164-2.974 2.675-1.399 3.849-1.008 7.306.189 1.666-.189 2.183 1.298 3.281 2.81 2.094 4.386 1.388 3.592 5.488-.718 3.735.391 2.461 3.629 3.849 2.873 1.236 4.764 4.328 7.095 6.271 1.487 1.236 3.781 2.195 3.919 4.378.265 4.164-4.915 3.256-7.372 4.253-4.02 1.627-2.823 6.914.315 8.895 3.327 2.095 8.179 2.864 8.443 7.647.202 3.659-1.878 4.479-4.713 5.703-2.268.984-1.978 1.262-1.978 3.974 0 5.464-1.84 7.016-7.209 6.12-1.474-.24-3.718-.871-5.192-.429-2.054.618-1.361 1.123-1.424 2.852-.151 4.416-5.28 3.167-7.448 1.274-2.495-2.17-5.646-4.706-9.036-5.034v-.026z"/><path id="C" d="M45.985 373.779l17.164-9.918c1.311-.757 2.457-1.905 3.73-3.52 1.046-1.325 1.802-2.789 2.092-4.454.101-.581.151-1.211-.177-1.691-.618-.908-2.092-.593-2.898.139-.819.732-1.474 1.388-2.331 2.309a25.59 25.59 0 0 0 .328-5.968c-.038-.72-.164-1.527-.718-1.981-.655-.53-1.651-.354-2.394.05-2.243 1.224-3.214 3.886-3.982 6.334a20.74 20.74 0 0 0-.227-7.583c-.592-2.713-3.692-3.773-4.751-1.186-.58 1.426-.743 2.788-.907 4.328-.126 1.211-.101 4.567.391 5.703-1.033-2.423-2.609-4.605-4.575-6.347-.731-.656-1.727-1.274-2.634-.921-1.084.417-1.273 1.868-1.159 3.028.239 2.448 1.046 4.821 2.331 6.915-1.739-1.161-3.73-1.943-5.797-2.259-.681-.1-1.462 0-1.827.594-.491.832.063 1.943.391 2.384 1.399 1.817 2.47 3.054 4.612 4.29-1.815-.555-3.73-.757-5.621-.593-.567.051-1.185.164-1.5.631-.491.719.088 1.678.706 2.284 1.109 1.073 2.659 1.678 4.02 2.397-.844.013-1.726.038-2.483.417s-1.361 1.211-1.185 2.031 1.021 1.325 1.815 1.603c3.34 1.148 4.272 1.527 7.599.971l-.013.013z"/><path id="D" d="M266.321 509.686L17.996 366.145l248.325-143.364 248.326 143.364-248.326 143.541z"/><path id="E" d="M17.996 366.145v11.911l248.325 143.541v-11.911L17.996 366.145z"/><path id="F" d="M266.372 255.133V62.017l187.091 108.147v193.117L266.372 255.133z"/><path id="G" d="M266.372 255.133l.012-193.116L79.293 170.164v193.117l187.079-108.148z"/><path id="H" d="M266.397 471.428l187.066-108.147-187.091-108.148L79.293 363.281l187.104 108.147z"/><path id="I" d="M179.303 212.459l-65.947 38.132v-57.21l65.947-38.118v57.196z"/><path id="J" d="M241.747 275.801c-4.764 2.751-4.764 7.218 0 9.981 4.764 2.751 12.489 2.751 17.252 0s4.764-7.217 0-9.981c-4.763-2.75-12.488-2.75-17.265 0h.013z"/><path id="K" d="M437.572 268.369l-1.071.631-21.953-12.681 1.071-.643 21.953 12.693z"/><path id="L" d="M414.548 256.319l1.071-.643v-21.892l-1.071-.631v23.166z"/><path id="M" d="M412.531 229.645l1.084-.618 25.999 15.028-1.084.618-25.999-15.028z"/><path id="N" d="M439.614 244.055l-1.084.618v27.835l1.084-.618v-27.835z"/><path id="O" d="M303.951 191.123l-1.071.643-21.953-12.693 1.071-.644 21.953 12.694z"/><path id="P" d="M280.927 179.073l1.071-.644v-21.892l-1.071-.631v23.167z"/><path id="Q" d="M278.911 152.411l1.084-.631 25.998 15.028-1.084.631-25.998-15.028z"/><path id="R" d="M305.993 166.808l-1.084.631v27.822l1.084-.618v-27.835z"/><path id="S" d="M275.584 318.071l109.954 63.556c.957.556 2.495.556 3.453 0l28.947-16.731c.958-.555 1.726-1.892 1.726-2.99v-52.2c0-1.098-.768-2.448-1.726-2.991l-109.954-63.556c-.958-.555-2.495-.555-3.453 0l-28.947 16.731c-.958.556-1.727 1.893-1.727 2.991v52.2c0 1.098.769 2.448 1.727 2.99z"/><path id="T" d="M309.181 297.264c-.214-.126-.529-.668-.529-.921l-32.4 18.725c0 .253.315.795.529.921l108.089 62.484 32.4-18.725-108.089-62.484z"/><path id="U" d="M367.025 334.715l-.806-.429.743-.177c.151.177.164.378.076.606h-.013z"/><path id="V" d="M352.508 325.591l6.452 3.723 4.184-2.41 4.864 2.813v3.243c0 .429-.479 1.035-.655.934 0 0-.378.076-.933.328s-1.336.997-1.336.997l-14.832-8.315 2.256-1.3v-.013z"/><path id="W" d="M338.003 313.857l27.699 16.012v.366c0 .202.29.278.643.076s.643-.467.643-.82l.037-.354-28.228-16.315-.114-.063s-.05.114-.05.177v.177c0 .201-.29.542-.643.744h.013z"/><path id="X" d="M347.202 345.541l1.122-.644 16.748-9.691c0-.214.088-.416.227-.605.189-.265.479-.492.731-.644.201-.113.491-.252.794-.252.201 0 .378.063.516.177.114-.152.303-.707.303-1.388h.63c0 .87-.29 1.754-.643 1.955l-.315.19c-.176.101-.328.113-.328.012v-.176c0-.19-.289-.177-.642.025s-.643.53-.643.719v.177c0 .101-.252.315-.554.492l-16.207 9.362-1.752 1.01c-.226.126-.529.189-.819.189v-.732c.303 0 .593-.063.819-.202l.013.026z"/><path id="Y" d="M347.189 340.582l1.122-.644 12.867-7.432 4.108-2.372c.29-.176.529-.227.542-.139v.19c0 .202.29.202.643 0s.504-.442.504-.644v-.202c0-.101.038-.214.101-.24.025-.012.063-.037.1-.05l.202-.114.252-.151c.114-.063.227-.05.315.025a.22.22 0 0 0 .038.025c.025.026.038.051.063.076.013.013.013.025.025.038l.076.164c.025.063.038.126.063.189l.038.215c0 .038.012.088.012.126v.101.252 2.524h-.63v-2.524-.202-.164s-.012 0-.025-.012c-.063.505-.542.959-.958 1.199-.189.113-.479.239-.769.239-.226 0-.415-.075-.567-.214l-.063.038s-.075.05-.113.063l-16.206 9.362-1.752 1.01c-.24.126-.529.189-.819.189v-.732c.327 0 .592-.076.819-.189h.012z"/><path id="Z" d="M318.52 324.658v.745c0 .176.113.34.327.466h.013l24.952 14.423 1.752 1.009c.227.126.529.189.819.189v-.732c-.303 0-.592-.063-.819-.201l-1.109-.644-25.583-14.788c-.239-.139-.34-.303-.34-.492l-.012.025z"/><path id="a" d="M308.652 270.25l-32.4 18.724 80.994 46.825 32.4-18.725-80.994-46.824z"/><path id="b" d="M276.252 288.975v3.268l80.717 46.66v-3.268l-80.717-46.66z"/><path id="c" d="M328.475 292.975v1.325l-14.455 8.353a1.33 1.33 0 0 1-.516.176c-.315.038-.643-.012-.92-.176l-28.532-16.492v-1.375l28.002 16.239c.353.202.794.303 1.248.303s.907-.101 1.26-.303l13.926-8.05h-.013z"/><path id="d" d="M319.212 309.1c1.21.618 3.895.82 6.024.454l2.722-.467c2.118-.366 4.814-.164 5.999.442 1.197.605 1.979 1.779 1.739 2.599l-.92 3.192c-.239.821-.315 1.691 1.727 2.6 1.55.681 3.037.53 4.121-.164l8.317-5.401c1.084-.706.718-1.905-.807-2.687l-11.72-6.007c-1.524-.782-4.07-.958-5.696-.403l-10.724 3.697c-1.626.555-1.966 1.514-.756 2.132l-.026.013z"/><path id="e" d="M331.764 305.604l-.063.53-1.411.581.05-.53 1.424-.581z"/><path id="f" d="M356.969 362.347l32.4-18.725V293l-32.4 18.724v50.623z"/><path id="g" d="M354.864 307.712v56.187l2.105 1.224v-56.2l-2.105-1.211z"/><path id="h" d="M369.709 334.374c-.794.454-2.066.466-2.848 0l-2.495-1.439c-.781-.454-.781-1.199 0-1.653l14.644-8.517.617.353-14.404 8.429c-.479.278-.479.719 0 .997l2.319 1.325c.466.277 1.235.265 1.714 0l14.391-8.416.706.404-14.644 8.517z"/><path id="i" d="M384.353 325.869l-.076 29.463-14.643 8.517c-.794.454-2.067.467-2.848 0l-2.496-1.439c-.39-.227-.592-.529-.592-.82l.076-29.462c0 .302.201.593.592.82l2.495 1.451c.781.454 2.067.454 2.848 0l14.644-8.517v-.013z"/><path id="j" d="M368.285 334.727c-.517 0-1.033-.114-1.424-.341l-2.495-1.451c-.391-.227-.592-.53-.592-.82l-.076 29.462c0 .303.202.593.592.821l2.496 1.438c.39.227.907.341 1.424.341l.075-29.463v.013z"/><path id="k" d="M384.92 332.746l-14.215 8.328 3.894 25.021 14.228-8.328-3.907-25.021z"/><path id="l" d="M376.464 342.752c-.731.429-2.016.479-2.861.139l-2.697-1.111c-.856-.353-.945-.984-.214-1.4l13.573-7.886.668.277-13.333 7.811c-.442.252-.378.631.126.845l2.507 1.022c.517.215 1.286.177 1.714-.076l13.333-7.797.757.315-13.573 7.886v-.025z"/><path id="m" d="M390.037 334.853l3.894 25.021-13.573 7.886c-.731.429-2.016.48-2.861.139l-2.696-1.11c-.429-.177-.656-.417-.706-.669l-3.907-25.021c.038.252.277.504.706.669l2.697 1.11c.857.353 2.13.29 2.861-.139l13.572-7.899.013.013z"/><path id="n" d="M375.078 343.105c-.517.026-1.046-.05-1.475-.227l-2.696-1.11c-.429-.177-.668-.417-.706-.669l3.907 25.021c.037.253.277.505.705.669l2.697 1.11c.429.177.958.253 1.475.228l-3.894-25.022h-.013z"/><path id="o" d="M385.538 325.44l-109.954-63.556c-.958-.555-1.727-.101-1.727.997v52.2c0 1.097.769 2.448 1.727 2.99l109.954 63.556c.957.555 1.726.101 1.726-.997v-52.2c0-1.097-.769-2.448-1.726-2.99zm-.668 53.033l-108.089-62.484c-.214-.126-.529-.669-.529-.921v-50.042l108.088 62.483c.215.126.53.669.53.921v50.043z"/><path id="p" d="M419.148 307.99l-32.451 18.661c-.302-.517-.718-.946-1.172-1.211l-109.941-63.556c-.794-.467-1.462-.227-1.676.505.177-.985.857-2.032 1.676-2.499l28.947-16.731c.958-.555 2.496-.555 3.453 0l109.942 63.556c.478.278.907.745 1.222 1.287v-.012z"/><path id="q" d="M349.886 251.764l11.733 6.776c.441.252.857.858.945 1.35l2.911 20.756a1.41 1.41 0 0 1-.63 1.351l-7.561 4.378a1.74 1.74 0 0 1-1.575 0l-16.169-9.35c-.441-.252-.794-.833-.794-1.312 0-.467.353-1.06.794-1.312l5.822-3.369a1.98 1.98 0 0 0 .882-1.363l1.298-16.618c.051-.505.429-1.098.832-1.337s1.097-.227 1.525.025l-.013.025z"/><path id="r" d="M396.892 230.188l-80.49-46.623c-.353-.202-.63-.038-.63.366v54.976c0 .404.277.896.63 1.098l80.478 46.522c.353.202.63.038.63-.366v-54.888c0-.404-.277-.896-.63-1.098l.012.013z"/><path id="s" d="M383.521 310.778c-1.046-.606-1.903-2.082-1.903-3.306s.857-1.703 1.903-1.098 1.903 2.082 1.903 3.306c0 1.211-.857 1.704-1.903 1.098z"/><path id="t" d="M302.704 264.067c-1.046-.606-1.903-2.082-1.903-3.306 0-1.211.857-1.703 1.903-1.098s1.903 2.082 1.903 3.306-.857 1.704-1.903 1.098z"/><path id="u" d="M426.633 283.46l1.575-.908c.089-.051.202-.038.328.038l7.952 4.593c.265.151.479.517.479.82v6.775c0 .152-.051.265-.139.303l-1.6.921c-.089.051-.202.038-.328-.037l-6.805-3.937-1.147-.669c-.265-.151-.479-.517-.479-.82v-6.776c0-.164.063-.265.151-.315l.013.012z"/><path id="v" d="M435.215 296.002h.025l1.601-.921c.088-.05.138-.151.138-.303v-6.776c0-.151-.05-.315-.138-.466l-1.601.921a.95.95 0 0 1 .139.467v6.775c0 .164-.063.278-.164.316v-.013z"/><path id="w" d="M431.787 291.018c0-.845-.592-1.867-1.323-2.284s-1.323-.075-1.323.757c0 .846.592 1.868 1.323 2.284s1.323.076 1.323-.757z"/><path id="x" d="M204.558 366.839c0 11.104 9.729 23.356 26.024 32.769l12.526 7.242c16.95 9.792 38.475 15.419 59.079 15.419 14.278 0 26.515-2.725 35.412-7.861 8.481-4.895 12.968-11.507 12.968-19.091 0-11.103-9.729-23.355-26.036-32.768l-12.539-7.243c-16.95-9.791-38.475-15.419-59.079-15.419-14.266 0-26.503 2.726-35.4 7.861-8.481 4.896-12.967 11.508-12.967 19.091h.012z"/><path id="y" d="M227.822 311.989l2.293 11.382 2.231 1.287 2.205-1.275 2.319-11.394-4.524-2.624-4.524 2.624z"/><path id="z" d="M232.346 324.658v-10.057l-4.524-2.612 2.293 11.382 2.231 1.287z"/><path id="AA" d="M191.225 253.342l9.137-5.275 41.12 23.772-9.136 5.275-41.121-23.772z"/><path id="AB" d="M191.225 253.342v42.257l41.121 23.772v-42.257l-41.121-23.772zm37.744 60.174l-34.379-19.86v-34.447l34.379 19.861v34.446z"/><path id="AC" d="M203.739 288.369l-9.136 5.287 34.366 19.86v-10.561l-25.23-14.586z"/><path id="AD" d="M203.739 288.369v-23.886l-9.136-5.287v34.46l9.136-5.287z"/><path id="AE" d="M149.651 306.248l-31.695 18.309c-1.348.782-2.432 2.662-2.432 4.227v7.76c0 1.552 1.096 3.445 2.432 4.227l36.257 20.958c1.348.782 3.528.782 4.864 0l31.682-18.308c1.348-.783 2.432-2.663 2.432-4.227v-7.748c0-1.552-1.096-3.444-2.432-4.227l-36.257-20.958c-1.348-.782-3.528-.782-4.877 0l.026-.013z"/><path id="AF" d="M190.784 327.207l-36.256-20.959c-1.349-.782-3.529-.782-4.877 0l-31.695 18.309c-1.348.782-1.348 2.031 0 2.814l36.257 20.958c1.348.782 3.528.782 4.864 0l31.682-18.309c1.348-.782 1.348-2.044 0-2.813h.025z"/><path id="AG" d="M106.4 302.374l9.136-5.274 41.121 23.772-9.136 5.274-41.121-23.772z"/><path id="AH" d="M106.4 302.375v42.257l41.121 23.772v-42.257L106.4 302.375zm37.743 60.174l-34.378-19.86v-34.447l34.378 19.86v34.447z"/><path id="AI" d="M118.914 337.401l-9.137 5.287 34.366 19.861v-10.561l-25.229-14.587z"/><path id="AJ" d="M118.914 337.401v-23.885l-9.137-5.287v34.459l9.137-5.287z"/><path id="AK" d="M222.617 343.143l-9.137-5.274-41.12 23.772 9.136 5.274 41.121-23.772z"/><path id="AL" d="M181.496 366.915v42.257l-9.149-5.274.013-42.257 9.136 5.274z"/><path id="AM" d="M210.103 378.17l9.137 5.287-34.366 19.86v-10.561l25.229-14.586z"/><path id="AN" d="M210.103 378.17v-23.886l9.137-5.286v34.459l-9.137-5.287z"/><path id="AO" d="M257.172 452.931l-75.676-43.759v-36.97l75.676 43.746v36.983z"/><path id="AP" d="M307.442 392.176l-9.149-5.274-41.121 23.772 9.149 5.274 41.121-23.772z"/><path id="AQ" d="M266.321 415.948v42.257l-9.149-5.274v-42.257l9.149 5.274z"/><path id="AR" d="M294.928 427.203l9.137 5.287-34.379 19.861v-10.562l25.242-14.586z"/><path id="AS" d="M294.928 427.203v-23.885l9.137-5.287v34.459l-9.137-5.287z"/><path id="AT" d="M498.617 291.473c3.995.858 6.25 1.501 8.884 6.359 2.621 4.845 9.754 21.375 9.754 21.375l-9.754 8.782-8.872-15.583v-20.921l-.012-.012z"/><path id="AU" d="M464.805 344.342s-.391 3.003.101 3.772 11.316 3.319 23.263 2.133 15.564-4.328 15.992-5.022c.416-.694.341-2.322 0-4.088l-39.356 3.217v-.012z"/><path id="AV" d="M466.015 293.895c-2.659.303-7.624 1.527-10.221 5.628s-5.683 17.702-6.83 21.892c-1.134 4.189-1.033 9.312-1.033 9.312s4.322 2.649 12.627.719c1.223-3.924 4.877-12.277 8.204-19.873 0 0 1.941-13.413-2.76-17.665l.013-.013z"/><path id="AW" d="M540.884 268.849l15.035 8.719-5.974 13.438c-.126.29-.327.504-.567.643l-5.167 2.991c-.718.416-1.739.126-2.016-.808l-6.49-21.993 5.179-2.99z"/><path id="AX" d="M521.477 235.172l17.126 9.892c.731.417 1.311 1.439 1.311 2.284v2.662c0 .846-.592 1.187-1.311.758l-17.126-9.893c-.731-.416-1.311-1.438-1.311-2.284v-2.662c0-.845.593-1.186 1.311-.757z"/></defs></svg>